<mxfile host="Electron" modified="2023-05-31T10:59:06.762Z" agent="Mozilla/5.0 (X11; Linux x86_64) AppleWebKit/537.36 (KHTML, like Gecko) draw.io/21.2.8 Chrome/112.0.5615.165 Electron/24.2.0 Safari/537.36" etag="E9WYVzmdBmlgZaH_Z6KQ" version="21.2.8" type="device" pages="10">
  <diagram name="Page-1" id="QEZPi0kMVrna30YqRpSw">
    <mxGraphModel dx="1674" dy="843" grid="1" gridSize="10" guides="1" tooltips="1" connect="1" arrows="1" fold="1" page="1" pageScale="1" pageWidth="850" pageHeight="1100" math="0" shadow="0">
      <root>
        <mxCell id="0" />
        <mxCell id="1" parent="0" />
        <mxCell id="FKhc2NEd0NatFmD5MpIt-4" style="edgeStyle=orthogonalEdgeStyle;rounded=0;orthogonalLoop=1;jettySize=auto;html=1;exitX=0;exitY=0.5;exitDx=0;exitDy=0;entryX=0.5;entryY=1;entryDx=0;entryDy=0;" parent="1" source="FKhc2NEd0NatFmD5MpIt-1" target="FKhc2NEd0NatFmD5MpIt-3" edge="1">
          <mxGeometry relative="1" as="geometry" />
        </mxCell>
        <mxCell id="FKhc2NEd0NatFmD5MpIt-12" style="edgeStyle=orthogonalEdgeStyle;rounded=0;orthogonalLoop=1;jettySize=auto;html=1;exitX=0.5;exitY=0;exitDx=0;exitDy=0;entryX=0.5;entryY=1;entryDx=0;entryDy=0;" parent="1" source="FKhc2NEd0NatFmD5MpIt-1" target="FKhc2NEd0NatFmD5MpIt-6" edge="1">
          <mxGeometry relative="1" as="geometry" />
        </mxCell>
        <mxCell id="FKhc2NEd0NatFmD5MpIt-14" style="edgeStyle=orthogonalEdgeStyle;rounded=0;orthogonalLoop=1;jettySize=auto;html=1;exitX=0.5;exitY=0;exitDx=0;exitDy=0;entryX=0.5;entryY=1;entryDx=0;entryDy=0;" parent="1" source="FKhc2NEd0NatFmD5MpIt-1" target="FKhc2NEd0NatFmD5MpIt-13" edge="1">
          <mxGeometry relative="1" as="geometry" />
        </mxCell>
        <mxCell id="FKhc2NEd0NatFmD5MpIt-21" style="edgeStyle=orthogonalEdgeStyle;rounded=0;orthogonalLoop=1;jettySize=auto;html=1;exitX=1;exitY=0.5;exitDx=0;exitDy=0;entryX=0.5;entryY=1;entryDx=0;entryDy=0;" parent="1" source="FKhc2NEd0NatFmD5MpIt-1" target="FKhc2NEd0NatFmD5MpIt-19" edge="1">
          <mxGeometry relative="1" as="geometry" />
        </mxCell>
        <mxCell id="FKhc2NEd0NatFmD5MpIt-1" value="Предыдущий слой" style="rounded=0;whiteSpace=wrap;html=1;" parent="1" vertex="1">
          <mxGeometry x="400" y="500" width="120" height="60" as="geometry" />
        </mxCell>
        <mxCell id="FKhc2NEd0NatFmD5MpIt-2" value="Конкатенация фильтров" style="rounded=0;whiteSpace=wrap;html=1;" parent="1" vertex="1">
          <mxGeometry x="400" y="180" width="120" height="60" as="geometry" />
        </mxCell>
        <mxCell id="FKhc2NEd0NatFmD5MpIt-5" style="edgeStyle=orthogonalEdgeStyle;rounded=0;orthogonalLoop=1;jettySize=auto;html=1;exitX=0.5;exitY=0;exitDx=0;exitDy=0;entryX=0.5;entryY=1;entryDx=0;entryDy=0;" parent="1" source="FKhc2NEd0NatFmD5MpIt-3" target="FKhc2NEd0NatFmD5MpIt-2" edge="1">
          <mxGeometry relative="1" as="geometry">
            <Array as="points">
              <mxPoint x="200" y="270" />
              <mxPoint x="460" y="270" />
            </Array>
          </mxGeometry>
        </mxCell>
        <mxCell id="FKhc2NEd0NatFmD5MpIt-3" value="Свертка 1х1" style="rounded=0;whiteSpace=wrap;html=1;" parent="1" vertex="1">
          <mxGeometry x="140" y="350" width="120" height="60" as="geometry" />
        </mxCell>
        <mxCell id="FKhc2NEd0NatFmD5MpIt-8" value="" style="edgeStyle=orthogonalEdgeStyle;rounded=0;orthogonalLoop=1;jettySize=auto;html=1;" parent="1" source="FKhc2NEd0NatFmD5MpIt-6" target="FKhc2NEd0NatFmD5MpIt-7" edge="1">
          <mxGeometry relative="1" as="geometry" />
        </mxCell>
        <mxCell id="FKhc2NEd0NatFmD5MpIt-6" value="Свертка 1х1" style="rounded=0;whiteSpace=wrap;html=1;" parent="1" vertex="1">
          <mxGeometry x="305" y="390" width="120" height="60" as="geometry" />
        </mxCell>
        <mxCell id="FKhc2NEd0NatFmD5MpIt-9" style="edgeStyle=orthogonalEdgeStyle;rounded=0;orthogonalLoop=1;jettySize=auto;html=1;entryX=0.5;entryY=1;entryDx=0;entryDy=0;" parent="1" source="FKhc2NEd0NatFmD5MpIt-7" target="FKhc2NEd0NatFmD5MpIt-2" edge="1">
          <mxGeometry relative="1" as="geometry" />
        </mxCell>
        <mxCell id="FKhc2NEd0NatFmD5MpIt-7" value="Свертка 3х3" style="rounded=0;whiteSpace=wrap;html=1;" parent="1" vertex="1">
          <mxGeometry x="305" y="300" width="120" height="60" as="geometry" />
        </mxCell>
        <mxCell id="FKhc2NEd0NatFmD5MpIt-16" value="" style="edgeStyle=orthogonalEdgeStyle;rounded=0;orthogonalLoop=1;jettySize=auto;html=1;" parent="1" source="FKhc2NEd0NatFmD5MpIt-13" target="FKhc2NEd0NatFmD5MpIt-15" edge="1">
          <mxGeometry relative="1" as="geometry" />
        </mxCell>
        <mxCell id="FKhc2NEd0NatFmD5MpIt-13" value="Свертка 1х1" style="rounded=0;whiteSpace=wrap;html=1;" parent="1" vertex="1">
          <mxGeometry x="480" y="390" width="120" height="60" as="geometry" />
        </mxCell>
        <mxCell id="FKhc2NEd0NatFmD5MpIt-18" style="edgeStyle=orthogonalEdgeStyle;rounded=0;orthogonalLoop=1;jettySize=auto;html=1;exitX=0.5;exitY=0;exitDx=0;exitDy=0;entryX=0.5;entryY=1;entryDx=0;entryDy=0;" parent="1" source="FKhc2NEd0NatFmD5MpIt-15" target="FKhc2NEd0NatFmD5MpIt-2" edge="1">
          <mxGeometry relative="1" as="geometry" />
        </mxCell>
        <mxCell id="FKhc2NEd0NatFmD5MpIt-15" value="Свертка 5х5" style="rounded=0;whiteSpace=wrap;html=1;" parent="1" vertex="1">
          <mxGeometry x="480" y="300" width="120" height="60" as="geometry" />
        </mxCell>
        <mxCell id="FKhc2NEd0NatFmD5MpIt-22" value="" style="edgeStyle=orthogonalEdgeStyle;rounded=0;orthogonalLoop=1;jettySize=auto;html=1;" parent="1" source="FKhc2NEd0NatFmD5MpIt-19" target="FKhc2NEd0NatFmD5MpIt-20" edge="1">
          <mxGeometry relative="1" as="geometry" />
        </mxCell>
        <mxCell id="FKhc2NEd0NatFmD5MpIt-19" value="Max Pooling 3х3" style="rounded=0;whiteSpace=wrap;html=1;" parent="1" vertex="1">
          <mxGeometry x="630" y="390" width="120" height="60" as="geometry" />
        </mxCell>
        <mxCell id="FKhc2NEd0NatFmD5MpIt-23" style="edgeStyle=orthogonalEdgeStyle;rounded=0;orthogonalLoop=1;jettySize=auto;html=1;entryX=0.5;entryY=1;entryDx=0;entryDy=0;" parent="1" source="FKhc2NEd0NatFmD5MpIt-20" target="FKhc2NEd0NatFmD5MpIt-2" edge="1">
          <mxGeometry relative="1" as="geometry">
            <Array as="points">
              <mxPoint x="690" y="270" />
              <mxPoint x="460" y="270" />
            </Array>
          </mxGeometry>
        </mxCell>
        <mxCell id="FKhc2NEd0NatFmD5MpIt-20" value="Свертка 1х1" style="rounded=0;whiteSpace=wrap;html=1;" parent="1" vertex="1">
          <mxGeometry x="630" y="300" width="120" height="60" as="geometry" />
        </mxCell>
      </root>
    </mxGraphModel>
  </diagram>
  <diagram id="UchgRdKCV1dVnO2bPV-L" name="Page-2">
    <mxGraphModel dx="1674" dy="843" grid="1" gridSize="10" guides="1" tooltips="1" connect="1" arrows="1" fold="1" page="1" pageScale="1" pageWidth="850" pageHeight="1100" math="0" shadow="0">
      <root>
        <mxCell id="0" />
        <mxCell id="1" parent="0" />
        <mxCell id="wtkODeiI_L9dSsM1mSeJ-6" style="edgeStyle=orthogonalEdgeStyle;rounded=0;orthogonalLoop=1;jettySize=auto;html=1;exitX=1;exitY=0.5;exitDx=0;exitDy=0;" parent="1" source="wtkODeiI_L9dSsM1mSeJ-1" edge="1">
          <mxGeometry relative="1" as="geometry">
            <mxPoint x="680" y="350" as="targetPoint" />
          </mxGeometry>
        </mxCell>
        <mxCell id="wtkODeiI_L9dSsM1mSeJ-1" value="Метод распознавания летательных аппаратов" style="rounded=0;whiteSpace=wrap;html=1;" parent="1" vertex="1">
          <mxGeometry x="365" y="310" width="165" height="80" as="geometry" />
        </mxCell>
        <mxCell id="wtkODeiI_L9dSsM1mSeJ-2" value="А0" style="text;html=1;align=center;verticalAlign=middle;resizable=0;points=[];autosize=1;strokeColor=none;fillColor=none;" parent="1" vertex="1">
          <mxGeometry x="500" y="370" width="40" height="30" as="geometry" />
        </mxCell>
        <mxCell id="wtkODeiI_L9dSsM1mSeJ-4" value="" style="endArrow=classic;html=1;rounded=0;entryX=0;entryY=0.25;entryDx=0;entryDy=0;" parent="1" target="wtkODeiI_L9dSsM1mSeJ-1" edge="1">
          <mxGeometry width="50" height="50" relative="1" as="geometry">
            <mxPoint x="230" y="330" as="sourcePoint" />
            <mxPoint x="450" y="390" as="targetPoint" />
          </mxGeometry>
        </mxCell>
        <mxCell id="wtkODeiI_L9dSsM1mSeJ-5" value="Изображение с &lt;br&gt;летательной техникой" style="text;html=1;align=center;verticalAlign=middle;resizable=0;points=[];autosize=1;strokeColor=none;fillColor=none;" parent="1" vertex="1">
          <mxGeometry x="215" y="290" width="150" height="40" as="geometry" />
        </mxCell>
        <mxCell id="wtkODeiI_L9dSsM1mSeJ-7" value="Марка модели техники" style="text;html=1;align=center;verticalAlign=middle;resizable=0;points=[];autosize=1;strokeColor=none;fillColor=none;" parent="1" vertex="1">
          <mxGeometry x="530" y="315" width="150" height="30" as="geometry" />
        </mxCell>
        <mxCell id="wtkODeiI_L9dSsM1mSeJ-8" value="" style="endArrow=classic;html=1;rounded=0;entryX=0.5;entryY=0;entryDx=0;entryDy=0;" parent="1" target="wtkODeiI_L9dSsM1mSeJ-1" edge="1">
          <mxGeometry width="50" height="50" relative="1" as="geometry">
            <mxPoint x="447" y="200" as="sourcePoint" />
            <mxPoint x="487.5" y="310" as="targetPoint" />
          </mxGeometry>
        </mxCell>
        <mxCell id="wtkODeiI_L9dSsM1mSeJ-9" value="Алгоритм обучения&lt;br&gt;нейронной сети" style="text;html=1;align=center;verticalAlign=middle;resizable=0;points=[];autosize=1;strokeColor=none;fillColor=none;" parent="1" vertex="1">
          <mxGeometry x="450" y="220" width="130" height="40" as="geometry" />
        </mxCell>
        <mxCell id="wtkODeiI_L9dSsM1mSeJ-12" value="" style="endArrow=classic;html=1;rounded=0;entryX=0.5;entryY=1;entryDx=0;entryDy=0;" parent="1" target="wtkODeiI_L9dSsM1mSeJ-1" edge="1">
          <mxGeometry width="50" height="50" relative="1" as="geometry">
            <mxPoint x="448" y="490" as="sourcePoint" />
            <mxPoint x="450" y="370" as="targetPoint" />
          </mxGeometry>
        </mxCell>
        <mxCell id="wtkODeiI_L9dSsM1mSeJ-13" value="Архитектура модели&lt;br&gt;нейронной сети" style="text;html=1;align=center;verticalAlign=middle;resizable=0;points=[];autosize=1;strokeColor=none;fillColor=none;" parent="1" vertex="1">
          <mxGeometry x="445" y="423" width="140" height="40" as="geometry" />
        </mxCell>
        <mxCell id="DQd51Iu6a_iFL00mmkAD-3" value="Обучающие&lt;br&gt;данные" style="text;html=1;align=center;verticalAlign=middle;resizable=0;points=[];autosize=1;strokeColor=none;fillColor=none;" parent="1" vertex="1">
          <mxGeometry x="245" y="330" width="90" height="40" as="geometry" />
        </mxCell>
        <mxCell id="EIvlB6nRrV2_p3LLWgAj-1" value="" style="endArrow=classic;html=1;rounded=0;entryX=0;entryY=0.75;entryDx=0;entryDy=0;" parent="1" target="wtkODeiI_L9dSsM1mSeJ-1" edge="1">
          <mxGeometry width="50" height="50" relative="1" as="geometry">
            <mxPoint x="230" y="370" as="sourcePoint" />
            <mxPoint x="450" y="400" as="targetPoint" />
          </mxGeometry>
        </mxCell>
      </root>
    </mxGraphModel>
  </diagram>
  <diagram id="KzPSzYK7PshHhVn-4qWp" name="Page-3">
    <mxGraphModel dx="1674" dy="843" grid="1" gridSize="10" guides="1" tooltips="1" connect="1" arrows="1" fold="1" page="1" pageScale="1" pageWidth="850" pageHeight="1100" math="0" shadow="0">
      <root>
        <mxCell id="0" />
        <mxCell id="1" parent="0" />
        <mxCell id="b1Pp96Tf9VX_xbxgW9f2-5" value="Изображение с &lt;br&gt;летательной техникой" style="text;html=1;align=center;verticalAlign=middle;resizable=0;points=[];autosize=1;strokeColor=none;fillColor=none;" parent="1" vertex="1">
          <mxGeometry x="20" y="780" width="150" height="40" as="geometry" />
        </mxCell>
        <mxCell id="b1Pp96Tf9VX_xbxgW9f2-12" value="Обучающие&lt;br&gt;данные" style="text;html=1;align=center;verticalAlign=middle;resizable=0;points=[];autosize=1;strokeColor=none;fillColor=none;" parent="1" vertex="1">
          <mxGeometry x="10" y="530" width="90" height="40" as="geometry" />
        </mxCell>
        <mxCell id="ZouPTpxIa87Gk0dpCMoP-4" style="edgeStyle=orthogonalEdgeStyle;rounded=0;orthogonalLoop=1;jettySize=auto;html=1;exitX=1;exitY=0.5;exitDx=0;exitDy=0;entryX=0;entryY=0.5;entryDx=0;entryDy=0;" parent="1" source="b1Pp96Tf9VX_xbxgW9f2-15" target="ZouPTpxIa87Gk0dpCMoP-2" edge="1">
          <mxGeometry relative="1" as="geometry">
            <Array as="points">
              <mxPoint x="370" y="570" />
              <mxPoint x="370" y="670" />
            </Array>
          </mxGeometry>
        </mxCell>
        <mxCell id="b1Pp96Tf9VX_xbxgW9f2-15" value="Провести аугментацию&amp;nbsp; обучающей выборки" style="rounded=0;whiteSpace=wrap;html=1;" parent="1" vertex="1">
          <mxGeometry x="100" y="530" width="165" height="80" as="geometry" />
        </mxCell>
        <mxCell id="b1Pp96Tf9VX_xbxgW9f2-16" value="А1" style="text;html=1;align=center;verticalAlign=middle;resizable=0;points=[];autosize=1;strokeColor=none;fillColor=none;" parent="1" vertex="1">
          <mxGeometry x="230" y="590" width="40" height="30" as="geometry" />
        </mxCell>
        <mxCell id="ZouPTpxIa87Gk0dpCMoP-1" value="" style="endArrow=classic;html=1;rounded=0;entryX=0;entryY=0.5;entryDx=0;entryDy=0;" parent="1" target="b1Pp96Tf9VX_xbxgW9f2-15" edge="1">
          <mxGeometry width="50" height="50" relative="1" as="geometry">
            <mxPoint x="10" y="570" as="sourcePoint" />
            <mxPoint x="60" y="500" as="targetPoint" />
          </mxGeometry>
        </mxCell>
        <mxCell id="ZouPTpxIa87Gk0dpCMoP-13" style="edgeStyle=orthogonalEdgeStyle;rounded=0;orthogonalLoop=1;jettySize=auto;html=1;exitX=1;exitY=0.5;exitDx=0;exitDy=0;entryX=0;entryY=0.25;entryDx=0;entryDy=0;" parent="1" source="ZouPTpxIa87Gk0dpCMoP-2" target="ZouPTpxIa87Gk0dpCMoP-10" edge="1">
          <mxGeometry relative="1" as="geometry">
            <Array as="points">
              <mxPoint x="630" y="670" />
              <mxPoint x="630" y="780" />
            </Array>
          </mxGeometry>
        </mxCell>
        <mxCell id="ZouPTpxIa87Gk0dpCMoP-2" value="Обучить модель" style="rounded=0;whiteSpace=wrap;html=1;" parent="1" vertex="1">
          <mxGeometry x="390" y="630" width="165" height="80" as="geometry" />
        </mxCell>
        <mxCell id="ZouPTpxIa87Gk0dpCMoP-3" value="А2" style="text;html=1;align=center;verticalAlign=middle;resizable=0;points=[];autosize=1;strokeColor=none;fillColor=none;" parent="1" vertex="1">
          <mxGeometry x="520" y="690" width="40" height="30" as="geometry" />
        </mxCell>
        <mxCell id="ZouPTpxIa87Gk0dpCMoP-5" value="Расширенная обучающая&lt;br&gt;выборка" style="text;html=1;align=center;verticalAlign=middle;resizable=0;points=[];autosize=1;strokeColor=none;fillColor=none;" parent="1" vertex="1">
          <mxGeometry x="255" y="530" width="170" height="40" as="geometry" />
        </mxCell>
        <mxCell id="ZouPTpxIa87Gk0dpCMoP-6" value="" style="endArrow=classic;html=1;rounded=0;entryX=0.5;entryY=1;entryDx=0;entryDy=0;" parent="1" target="ZouPTpxIa87Gk0dpCMoP-2" edge="1">
          <mxGeometry width="50" height="50" relative="1" as="geometry">
            <mxPoint x="473" y="860" as="sourcePoint" />
            <mxPoint x="470" y="730" as="targetPoint" />
          </mxGeometry>
        </mxCell>
        <mxCell id="ZouPTpxIa87Gk0dpCMoP-7" value="Архитектура модели&lt;br&gt;нейронной сети" style="text;html=1;align=center;verticalAlign=middle;resizable=0;points=[];autosize=1;strokeColor=none;fillColor=none;" parent="1" vertex="1">
          <mxGeometry x="470" y="720" width="140" height="40" as="geometry" />
        </mxCell>
        <mxCell id="ZouPTpxIa87Gk0dpCMoP-8" value="" style="endArrow=classic;html=1;rounded=0;entryX=0.5;entryY=0;entryDx=0;entryDy=0;" parent="1" target="ZouPTpxIa87Gk0dpCMoP-2" edge="1">
          <mxGeometry width="50" height="50" relative="1" as="geometry">
            <mxPoint x="472" y="490" as="sourcePoint" />
            <mxPoint x="470" y="620" as="targetPoint" />
          </mxGeometry>
        </mxCell>
        <mxCell id="ZouPTpxIa87Gk0dpCMoP-9" value="Алгоритм обучения&lt;br&gt;нейронной сети" style="text;html=1;align=center;verticalAlign=middle;resizable=0;points=[];autosize=1;strokeColor=none;fillColor=none;" parent="1" vertex="1">
          <mxGeometry x="470" y="550" width="130" height="40" as="geometry" />
        </mxCell>
        <mxCell id="ZouPTpxIa87Gk0dpCMoP-17" style="edgeStyle=orthogonalEdgeStyle;rounded=0;orthogonalLoop=1;jettySize=auto;html=1;exitX=1;exitY=0.5;exitDx=0;exitDy=0;" parent="1" source="ZouPTpxIa87Gk0dpCMoP-10" edge="1">
          <mxGeometry relative="1" as="geometry">
            <mxPoint x="950" y="799.952380952381" as="targetPoint" />
          </mxGeometry>
        </mxCell>
        <mxCell id="ZouPTpxIa87Gk0dpCMoP-10" value="Классифицировать летательную технику на изображении" style="rounded=0;whiteSpace=wrap;html=1;" parent="1" vertex="1">
          <mxGeometry x="660" y="760" width="165" height="80" as="geometry" />
        </mxCell>
        <mxCell id="ZouPTpxIa87Gk0dpCMoP-11" value="А3" style="text;html=1;align=center;verticalAlign=middle;resizable=0;points=[];autosize=1;strokeColor=none;fillColor=none;" parent="1" vertex="1">
          <mxGeometry x="790" y="820" width="40" height="30" as="geometry" />
        </mxCell>
        <mxCell id="ZouPTpxIa87Gk0dpCMoP-12" value="" style="endArrow=classic;html=1;rounded=0;entryX=0;entryY=0.75;entryDx=0;entryDy=0;" parent="1" target="ZouPTpxIa87Gk0dpCMoP-10" edge="1">
          <mxGeometry width="50" height="50" relative="1" as="geometry">
            <mxPoint x="20" y="820" as="sourcePoint" />
            <mxPoint x="240" y="780" as="targetPoint" />
          </mxGeometry>
        </mxCell>
        <mxCell id="ZouPTpxIa87Gk0dpCMoP-14" value="Обученная&lt;br&gt;модель" style="text;html=1;align=center;verticalAlign=middle;resizable=0;points=[];autosize=1;strokeColor=none;fillColor=none;" parent="1" vertex="1">
          <mxGeometry x="555" y="630" width="80" height="40" as="geometry" />
        </mxCell>
        <mxCell id="ZouPTpxIa87Gk0dpCMoP-16" value="Марка модели техники" style="text;html=1;align=center;verticalAlign=middle;resizable=0;points=[];autosize=1;strokeColor=none;fillColor=none;" parent="1" vertex="1">
          <mxGeometry x="820" y="760" width="150" height="30" as="geometry" />
        </mxCell>
      </root>
    </mxGraphModel>
  </diagram>
  <diagram id="RpeAOaPUqIlIFRVnEEpd" name="Page-4">
    <mxGraphModel dx="1674" dy="843" grid="1" gridSize="10" guides="1" tooltips="1" connect="1" arrows="1" fold="1" page="1" pageScale="1" pageWidth="850" pageHeight="1100" math="0" shadow="0">
      <root>
        <mxCell id="0" />
        <mxCell id="1" parent="0" />
        <mxCell id="gC67mQMJ9VKfzoR-cctH-1" value="" style="shape=image;aspect=fixed;image=data:image/svg+xml,PD94bWwgdmVyc2lvbj0iMS4wIiBlbmNvZGluZz0iVVRGLTgiPz4KPHN2ZyB3aWR0aD0iNzkycHgiIGhlaWdodD0iMjgxcHgiIHZpZXdCb3g9IjAgMCA3OTIgMjgxIiB2ZXJzaW9uPSIxLjEiIHhtbG5zPSJodHRwOi8vd3d3LnczLm9yZy8yMDAwL3N2ZyIgeG1sbnM6eGxpbms9Imh0dHA6Ly93d3cudzMub3JnLzE5OTkveGxpbmsiPgogICAgPCEtLSBHZW5lcmF0b3I6IFNrZXRjaCA2My4xICg5MjQ1MikgLSBodHRwczovL3NrZXRjaC5jb20gLS0+CiAgICA8dGl0bGU+b3ZlcnRyYWluaW5nPC90aXRsZT4KICAgIDxkZXNjPkNyZWF0ZWQgd2l0aCBTa2V0Y2guPC9kZXNjPgogICAgPGcgaWQ9Im92ZXJ0cmFpbmluZyIgc3Ryb2tlPSJub25lIiBzdHJva2Utd2lkdGg9IjEiIGZpbGw9Im5vbmUiIGZpbGwtcnVsZT0iZXZlbm9kZCI+CiAgICAgICAgPHJlY3QgZmlsbD0iI0ZGRkZGRiIgeD0iMCIgeT0iMCIgd2lkdGg9Ijc5MiIgaGVpZ2h0PSIyODEiPjwvcmVjdD4KICAgICAgICA8ZyBpZD0iR3JvdXAiIHRyYW5zZm9ybT0idHJhbnNsYXRlKC02NTEuMDAwMDAwLCA0MC4wMDAwMDApIj4KICAgICAgICAgICAgPGcgaWQ9ImF4aXMvZ2VuZXJhbCIgdHJhbnNmb3JtPSJ0cmFuc2xhdGUoMC4wMDAwMDAsIDYuMDE1MzQzKSI+CiAgICAgICAgICAgICAgICA8ZyBpZD0iYXhpcy9sYWJlbC0wIiB0cmFuc2Zvcm09InRyYW5zbGF0ZSg1NzEuMDAwMDAwLCAxNTQuMDAwMDAwKSIgZm9udC1mYW1pbHk9IlNvdXJjZVNhbnNQcm8tUmVndWxhciwgU291cmNlIFNhbnMgUHJvIiBmb250LXNpemU9IjE2IiBmb250LXdlaWdodD0ibm9ybWFsIj4KICAgICAgICAgICAgICAgICAgICA8dGV4dCBpZD0iMCI+PC90ZXh0PgogICAgICAgICAgICAgICAgPC9nPgogICAgICAgICAgICAgICAgPGcgaWQ9ImF4aXMvbGFiZWwteCIgdHJhbnNmb3JtPSJ0cmFuc2xhdGUoOTAxLjAwMDAwMCwgMTQyLjAwMDAwMCkiIGZpbGw9IiMzMzMzMzMiIGZpbGwtcnVsZT0ibm9uemVybyI+CiAgICAgICAgICAgICAgICAgICAgPHBhdGggZD0iTTEuNjE2LDE2IEwyLjY1NiwxNC4xOTIgQzIuOTI4LDEzLjcyOCAzLjE4NCwxMy4yNDggMy40NCwxMi44IEwzLjUwNCwxMi44IEMzLjc5MiwxMy4yNDggNC4wOCwxMy43MjggNC4zNTIsMTQuMTkyIEw1LjQ4OCwxNiBMNi45MjgsMTYgTDQuNCwxMi4wOCBMNi43NTIsOC4yMjQgTDUuMzYsOC4yMjQgTDQuNDE2LDkuOTIgQzQuMTc2LDEwLjM1MiAzLjk1MiwxMC43ODQgMy43MTIsMTEuMjE2IEwzLjY0OCwxMS4yMTYgQzMuMzkyLDEwLjc4NCAzLjEzNiwxMC4zNTIgMi44OTYsOS45MiBMMS44NTYsOC4yMjQgTDAuNDE2LDguMjI0IEwyLjc2OCwxMS45MzYgTDAuMjI0LDE2IEwxLjYxNiwxNiBaIiBpZD0ieCI+PC9wYXRoPgogICAgICAgICAgICAgICAgPC9nPgogICAgICAgICAgICAgICAgPHBhdGggaWQ9IlBhdGgtNiIgZD0iTTcwNyw0IEw3MTQsMTggTDcwOCwxOCBMNzA4LDE1MyBMODc3LDE1MyBMODc3LDE0NyBMODkxLDE1NCBMODc3LDE2MSBMODc3LDE1NSBMNzA2LDE1NSBMNzA2LDE4IEw3MDAsMTggTDcwNyw0IFoiIGZpbGw9IiM2MzZGODAiIGZpbGwtcnVsZT0ibm9uemVybyI+PC9wYXRoPgogICAgICAgICAgICAgICAgPGcgaWQ9ImF4aXMvbGFiZWwteSIgZmlsbD0iIzMzMzMzMyIgZmlsbC1ydWxlPSJub256ZXJvIj4KICAgICAgICAgICAgICAgICAgICA8cGF0aCBkPSJNNjg3Ljk2OCwxOS4zNDQgQzY4OS41MiwxOS4zNDQgNjkwLjMzNiwxOC4xNzYgNjkwLjg4LDE2LjY0IEw2OTMuODA4LDguMjI0IEw2OTIuNTEyLDguMjI0IEw2OTEuMTIsMTIuNTEyIEM2OTAuOTEyLDEzLjIgNjkwLjY4OCwxNCA2OTAuNDgsMTQuNzA0IEw2OTAuNDE2LDE0LjcwNCBDNjkwLjE2LDEzLjk4NCA2ODkuOTA0LDEzLjE4NCA2ODkuNjQ4LDEyLjUxMiBMNjg4LjA4LDguMjI0IEw2ODYuNzA0LDguMjI0IEw2ODkuODI0LDE2LjAxNiBMNjg5LjY0OCwxNi41OTIgQzY4OS4zMjgsMTcuNTUyIDY4OC43NjgsMTguMjQgNjg3LjkwNCwxOC4yNCBDNjg3LjcxMiwxOC4yNCA2ODcuNTIsMTguMjA4IDY4Ny4zMjgsMTguMTQ0IEw2ODcuMDQsMTkuMTg0IEM2ODcuMjk2LDE5LjI4IDY4Ny42LDE5LjM0NCA2ODcuOTY4LDE5LjM0NCBaIiBpZD0ieSI+PC9wYXRoPgogICAgICAgICAgICAgICAgPC9nPgogICAgICAgICAgICA8L2c+CiAgICAgICAgICAgIDxnIGlkPSJheGlzL2dlbmVyYWwtY29weS0yIiB0cmFuc2Zvcm09InRyYW5zbGF0ZSg0OTYuMDAwMDAwLCA2LjAxNTM0MykiPgogICAgICAgICAgICAgICAgPGcgaWQ9ImF4aXMvbGFiZWwtMCIgdHJhbnNmb3JtPSJ0cmFuc2xhdGUoNTcxLjAwMDAwMCwgMTU0LjAwMDAwMCkiIGZvbnQtZmFtaWx5PSJTb3VyY2VTYW5zUHJvLVJlZ3VsYXIsIFNvdXJjZSBTYW5zIFBybyIgZm9udC1zaXplPSIxNiIgZm9udC13ZWlnaHQ9Im5vcm1hbCI+CiAgICAgICAgICAgICAgICAgICAgPHRleHQgaWQ9IjAiPjwvdGV4dD4KICAgICAgICAgICAgICAgIDwvZz4KICAgICAgICAgICAgICAgIDxnIGlkPSJheGlzL2xhYmVsLXgiIHRyYW5zZm9ybT0idHJhbnNsYXRlKDkwMS4wMDAwMDAsIDE0Mi4wMDAwMDApIiBmaWxsPSIjMzMzMzMzIiBmaWxsLXJ1bGU9Im5vbnplcm8iPgogICAgICAgICAgICAgICAgICAgIDxwYXRoIGQ9Ik0xLjYxNiwxNiBMMi42NTYsMTQuMTkyIEMyLjkyOCwxMy43MjggMy4xODQsMTMuMjQ4IDMuNDQsMTIuOCBMMy41MDQsMTIuOCBDMy43OTIsMTMuMjQ4IDQuMDgsMTMuNzI4IDQuMzUyLDE0LjE5MiBMNS40ODgsMTYgTDYuOTI4LDE2IEw0LjQsMTIuMDggTDYuNzUyLDguMjI0IEw1LjM2LDguMjI0IEw0LjQxNiw5LjkyIEM0LjE3NiwxMC4zNTIgMy45NTIsMTAuNzg0IDMuNzEyLDExLjIxNiBMMy42NDgsMTEuMjE2IEMzLjM5MiwxMC43ODQgMy4xMzYsMTAuMzUyIDIuODk2LDkuOTIgTDEuODU2LDguMjI0IEwwLjQxNiw4LjIyNCBMMi43NjgsMTEuOTM2IEwwLjIyNCwxNiBMMS42MTYsMTYgWiIgaWQ9IngiPjwvcGF0aD4KICAgICAgICAgICAgICAgIDwvZz4KICAgICAgICAgICAgICAgIDxwYXRoIGlkPSJQYXRoLTYiIGQ9Ik03MDcsNCBMNzE0LDE4IEw3MDgsMTggTDcwOCwxNTMgTDg3NywxNTMgTDg3NywxNDcgTDg5MSwxNTQgTDg3NywxNjEgTDg3NywxNTUgTDcwNiwxNTUgTDcwNiwxOCBMNzAwLDE4IEw3MDcsNCBaIiBmaWxsPSIjNjM2RjgwIiBmaWxsLXJ1bGU9Im5vbnplcm8iPjwvcGF0aD4KICAgICAgICAgICAgICAgIDxnIGlkPSJheGlzL2xhYmVsLXkiIGZpbGw9IiMzMzMzMzMiIGZpbGwtcnVsZT0ibm9uemVybyI+CiAgICAgICAgICAgICAgICAgICAgPHBhdGggZD0iTTY4Ny45NjgsMTkuMzQ0IEM2ODkuNTIsMTkuMzQ0IDY5MC4zMzYsMTguMTc2IDY5MC44OCwxNi42NCBMNjkzLjgwOCw4LjIyNCBMNjkyLjUxMiw4LjIyNCBMNjkxLjEyLDEyLjUxMiBDNjkwLjkxMiwxMy4yIDY5MC42ODgsMTQgNjkwLjQ4LDE0LjcwNCBMNjkwLjQxNiwxNC43MDQgQzY5MC4xNiwxMy45ODQgNjg5LjkwNCwxMy4xODQgNjg5LjY0OCwxMi41MTIgTDY4OC4wOCw4LjIyNCBMNjg2LjcwNCw4LjIyNCBMNjg5LjgyNCwxNi4wMTYgTDY4OS42NDgsMTYuNTkyIEM2ODkuMzI4LDE3LjU1MiA2ODguNzY4LDE4LjI0IDY4Ny45MDQsMTguMjQgQzY4Ny43MTIsMTguMjQgNjg3LjUyLDE4LjIwOCA2ODcuMzI4LDE4LjE0NCBMNjg3LjA0LDE5LjE4NCBDNjg3LjI5NiwxOS4yOCA2ODcuNiwxOS4zNDQgNjg3Ljk2OCwxOS4zNDQgWiIgaWQ9InkiPjwvcGF0aD4KICAgICAgICAgICAgICAgIDwvZz4KICAgICAgICAgICAgPC9nPgogICAgICAgICAgICA8ZyBpZD0iYXhpcy9nZW5lcmFsLWNvcHkiIHRyYW5zZm9ybT0idHJhbnNsYXRlKDI1MS4wMDAwMDAsIDYuMDE1MzQzKSI+CiAgICAgICAgICAgICAgICA8ZyBpZD0iYXhpcy9sYWJlbC0wIiB0cmFuc2Zvcm09InRyYW5zbGF0ZSg1NzEuMDAwMDAwLCAxNTQuMDAwMDAwKSIgZm9udC1mYW1pbHk9IlNvdXJjZVNhbnNQcm8tUmVndWxhciwgU291cmNlIFNhbnMgUHJvIiBmb250LXNpemU9IjE2IiBmb250LXdlaWdodD0ibm9ybWFsIj4KICAgICAgICAgICAgICAgICAgICA8dGV4dCBpZD0iMCI+PC90ZXh0PgogICAgICAgICAgICAgICAgPC9nPgogICAgICAgICAgICAgICAgPGcgaWQ9ImF4aXMvbGFiZWwteCIgdHJhbnNmb3JtPSJ0cmFuc2xhdGUoOTAxLjAwMDAwMCwgMTQyLjAwMDAwMCkiIGZpbGw9IiMzMzMzMzMiIGZpbGwtcnVsZT0ibm9uemVybyI+CiAgICAgICAgICAgICAgICAgICAgPHBhdGggZD0iTTEuNjE2LDE2IEwyLjY1NiwxNC4xOTIgQzIuOTI4LDEzLjcyOCAzLjE4NCwxMy4yNDggMy40NCwxMi44IEwzLjUwNCwxMi44IEMzLjc5MiwxMy4yNDggNC4wOCwxMy43MjggNC4zNTIsMTQuMTkyIEw1LjQ4OCwxNiBMNi45MjgsMTYgTDQuNCwxMi4wOCBMNi43NTIsOC4yMjQgTDUuMzYsOC4yMjQgTDQuNDE2LDkuOTIgQzQuMTc2LDEwLjM1MiAzLjk1MiwxMC43ODQgMy43MTIsMTEuMjE2IEwzLjY0OCwxMS4yMTYgQzMuMzkyLDEwLjc4NCAzLjEzNiwxMC4zNTIgMi44OTYsOS45MiBMMS44NTYsOC4yMjQgTDAuNDE2LDguMjI0IEwyLjc2OCwxMS45MzYgTDAuMjI0LDE2IEwxLjYxNiwxNiBaIiBpZD0ieCI+PC9wYXRoPgogICAgICAgICAgICAgICAgPC9nPgogICAgICAgICAgICAgICAgPHBhdGggaWQ9IlBhdGgtNiIgZD0iTTcwNyw0IEw3MTQsMTggTDcwOCwxOCBMNzA4LDE1MyBMODc3LDE1MyBMODc3LDE0NyBMODkxLDE1NCBMODc3LDE2MSBMODc3LDE1NSBMNzA2LDE1NSBMNzA2LDE4IEw3MDAsMTggTDcwNyw0IFoiIGZpbGw9IiM2MzZGODAiIGZpbGwtcnVsZT0ibm9uemVybyI+PC9wYXRoPgogICAgICAgICAgICAgICAgPGcgaWQ9ImF4aXMvbGFiZWwteSIgZmlsbD0iIzMzMzMzMyIgZmlsbC1ydWxlPSJub256ZXJvIj4KICAgICAgICAgICAgICAgICAgICA8cGF0aCBkPSJNNjg3Ljk2OCwxOS4zNDQgQzY4OS41MiwxOS4zNDQgNjkwLjMzNiwxOC4xNzYgNjkwLjg4LDE2LjY0IEw2OTMuODA4LDguMjI0IEw2OTIuNTEyLDguMjI0IEw2OTEuMTIsMTIuNTEyIEM2OTAuOTEyLDEzLjIgNjkwLjY4OCwxNCA2OTAuNDgsMTQuNzA0IEw2OTAuNDE2LDE0LjcwNCBDNjkwLjE2LDEzLjk4NCA2ODkuOTA0LDEzLjE4NCA2ODkuNjQ4LDEyLjUxMiBMNjg4LjA4LDguMjI0IEw2ODYuNzA0LDguMjI0IEw2ODkuODI0LDE2LjAxNiBMNjg5LjY0OCwxNi41OTIgQzY4OS4zMjgsMTcuNTUyIDY4OC43NjgsMTguMjQgNjg3LjkwNCwxOC4yNCBDNjg3LjcxMiwxOC4yNCA2ODcuNTIsMTguMjA4IDY4Ny4zMjgsMTguMTQ0IEw2ODcuMDQsMTkuMTg0IEM2ODcuMjk2LDE5LjI4IDY4Ny42LDE5LjM0NCA2ODcuOTY4LDE5LjM0NCBaIiBpZD0ieSI+PC9wYXRoPgogICAgICAgICAgICAgICAgPC9nPgogICAgICAgICAgICA8L2c+CiAgICAgICAgICAgIDxnIGlkPSIzIiB0cmFuc2Zvcm09InRyYW5zbGF0ZSgxMjE2LjAwMDAwMCwgMTQuMDE1MzQzKSI+CiAgICAgICAgICAgICAgICA8cGF0aCBkPSJNMTksMTggQzE5LDE1LjIzODM5OTMgMTYuNzYxNzc1LDEzIDE0LjAwMDM4OTMsMTMgQzExLjIzOTAwMzUsMTMgOSwxNS4yMzgzOTkzIDksMTggQzksMjAuNzYxNjAwNyAxMS4yMzkwMDM1LDIzIDE0LjAwMDM4OTMsMjMgQzE2Ljc2MTc3NSwyMyAxOSwyMC43NjE2MDA3IDE5LDE4IiBpZD0iRmlsbC0zIiBmaWxsPSIjNzRCMERFIj48L3BhdGg+CiAgICAgICAgICAgICAgICA8cGF0aCBkPSJNMTMsNTEgQzEzLDQ4LjIzODM5OTMgMTAuNzYxNzc1LDQ2IDguMDAwMzg5MjYsNDYgQzUuMjM5MDAzNSw0NiAzLDQ4LjIzODM5OTMgMyw1MSBDMyw1My43NjE2MDA3IDUuMjM5MDAzNSw1NiA4LjAwMDM4OTI2LDU2IEMxMC43NjE3NzUsNTYgMTMsNTMuNzYxNjAwNyAxMyw1MSIgaWQ9IkZpbGwtMy1Db3B5IiBmaWxsPSIjNzRCMERFIj48L3BhdGg+CiAgICAgICAgICAgICAgICA8cGF0aCBkPSJNMzEsNzcgQzMxLDc0LjIzODM5OTMgMjguNzYxNzc1LDcyIDI2LjAwMDM4OTMsNzIgQzIzLjIzOTAwMzUsNzIgMjEsNzQuMjM4Mzk5MyAyMSw3NyBDMjEsNzkuNzYxNjAwNyAyMy4yMzkwMDM1LDgyIDI2LjAwMDM4OTMsODIgQzI4Ljc2MTc3NSw4MiAzMSw3OS43NjE2MDA3IDMxLDc3IiBpZD0iRmlsbC0zLUNvcHktMiIgZmlsbD0iIzc0QjBERSI+PC9wYXRoPgogICAgICAgICAgICAgICAgPHBhdGggZD0iTTEwLDg3IEMxMCw4NC4yMzgzOTkzIDcuNzYxNzc1MDEsODIgNS4wMDAzODkyNiw4MiBDMi4yMzkwMDM1LDgyIDAsODQuMjM4Mzk5MyAwLDg3IEMwLDg5Ljc2MTYwMDcgMi4yMzkwMDM1LDkyIDUuMDAwMzg5MjYsOTIgQzcuNzYxNzc1MDEsOTIgMTAsODkuNzYxNjAwNyAxMCw4NyIgaWQ9IkZpbGwtMy1Db3B5LTMiIGZpbGw9IiM3NEIwREUiPjwvcGF0aD4KICAgICAgICAgICAgICAgIDxwYXRoIGQ9Ik01NCw3NCBDNTQsNzEuMjM4Mzk5MyA1MS43NjE3NzUsNjkgNDkuMDAwMzg5Myw2OSBDNDYuMjM5MDAzNSw2OSA0NCw3MS4yMzgzOTkzIDQ0LDc0IEM0NCw3Ni43NjE2MDA3IDQ2LjIzOTAwMzUsNzkgNDkuMDAwMzg5Myw3OSBDNTEuNzYxNzc1LDc5IDU0LDc2Ljc2MTYwMDcgNTQsNzQiIGlkPSJGaWxsLTMtQ29weS00IiBmaWxsPSIjNzRCMERFIj48L3BhdGg+CiAgICAgICAgICAgICAgICA8cGF0aCBkPSJNNDMsMTAzIEM0MywxMDAuMjM4Mzk5IDQwLjc2MTc3NSw5OCAzOC4wMDAzODkzLDk4IEMzNS4yMzkwMDM1LDk4IDMzLDEwMC4yMzgzOTkgMzMsMTAzIEMzMywxMDUuNzYxNjAxIDM1LjIzOTAwMzUsMTA4IDM4LjAwMDM4OTMsMTA4IEM0MC43NjE3NzUsMTA4IDQzLDEwNS43NjE2MDEgNDMsMTAzIiBpZD0iRmlsbC0zLUNvcHktNSIgZmlsbD0iIzc0QjBERSI+PC9wYXRoPgogICAgICAgICAgICAgICAgPHBhdGggZD0iTTE5LDEyMSBDMTksMTE4LjIzODM5OSAxNi43NjE3NzUsMTE2IDE0LjAwMDM4OTMsMTE2IEMxMS4yMzkwMDM1LDExNiA5LDExOC4yMzgzOTkgOSwxMjEgQzksMTIzLjc2MTYwMSAxMS4yMzkwMDM1LDEyNiAxNC4wMDAzODkzLDEyNiBDMTYuNzYxNzc1LDEyNiAxOSwxMjMuNzYxNjAxIDE5LDEyMSIgaWQ9IkZpbGwtMy1Db3B5LTYiIGZpbGw9IiM3NEIwREUiPjwvcGF0aD4KICAgICAgICAgICAgICAgIDxwYXRoIGQ9Ik02MCwxMjggQzYwLDEyNS4yMzgzOTkgNTcuNzYxNzc1LDEyMyA1NS4wMDAzODkzLDEyMyBDNTIuMjM5MDAzNSwxMjMgNTAsMTI1LjIzODM5OSA1MCwxMjggQzUwLDEzMC43NjE2MDEgNTIuMjM5MDAzNSwxMzMgNTUuMDAwMzg5MywxMzMgQzU3Ljc2MTc3NSwxMzMgNjAsMTMwLjc2MTYwMSA2MCwxMjgiIGlkPSJGaWxsLTMtQ29weS03IiBmaWxsPSIjNzRCMERFIj48L3BhdGg+CiAgICAgICAgICAgICAgICA8cGF0aCBkPSJNMTAyLDEyOCBDMTAyLDEyNS4yMzgzOTkgOTkuNzYxNzc1LDEyMyA5Ny4wMDAzODkzLDEyMyBDOTQuMjM5MDAzNSwxMjMgOTIsMTI1LjIzODM5OSA5MiwxMjggQzkyLDEzMC43NjE2MDEgOTQuMjM5MDAzNSwxMzMgOTcuMDAwMzg5MywxMzMgQzk5Ljc2MTc3NSwxMzMgMTAyLDEzMC43NjE2MDEgMTAyLDEyOCIgaWQ9IkZpbGwtMy1Db3B5LTgiIGZpbGw9IiM3NEIwREUiPjwvcGF0aD4KICAgICAgICAgICAgICAgIDxwYXRoIGQ9Ik0xMzUsMTI4IEMxMzUsMTI1LjIzODM5OSAxMzIuNzYxNzc1LDEyMyAxMzAuMDAwMzg5LDEyMyBDMTI3LjIzOTAwNCwxMjMgMTI1LDEyNS4yMzgzOTkgMTI1LDEyOCBDMTI1LDEzMC43NjE2MDEgMTI3LjIzOTAwNCwxMzMgMTMwLjAwMDM4OSwxMzMgQzEzMi43NjE3NzUsMTMzIDEzNSwxMzAuNzYxNjAxIDEzNSwxMjgiIGlkPSJGaWxsLTMtQ29weS05IiBmaWxsPSIjNzRCMERFIj48L3BhdGg+CiAgICAgICAgICAgICAgICA8cGF0aCBkPSJNMTIwLDEwNSBDMTIwLDEwMi4yMzgzOTkgMTE3Ljc2MTc3NSwxMDAgMTE1LjAwMDM4OSwxMDAgQzExMi4yMzkwMDQsMTAwIDExMCwxMDIuMjM4Mzk5IDExMCwxMDUgQzExMCwxMDcuNzYxNjAxIDExMi4yMzkwMDQsMTEwIDExNS4wMDAzODksMTEwIEMxMTcuNzYxNzc1LDExMCAxMjAsMTA3Ljc2MTYwMSAxMjAsMTA1IiBpZD0iRmlsbC0zLUNvcHktMTAiIGZpbGw9IiM3NEIwREUiPjwvcGF0aD4KICAgICAgICAgICAgICAgIDxwYXRoIGQ9Ik04OCwxMDYgQzg4LDEwMy4yMzgzOTkgODUuNzYxNzc1LDEwMSA4My4wMDAzODkzLDEwMSBDODAuMjM5MDAzNSwxMDEgNzgsMTAzLjIzODM5OSA3OCwxMDYgQzc4LDEwOC43NjE2MDEgODAuMjM5MDAzNSwxMTEgODMuMDAwMzg5MywxMTEgQzg1Ljc2MTc3NSwxMTEgODgsMTA4Ljc2MTYwMSA4OCwxMDYiIGlkPSJGaWxsLTMtQ29weS0xNSIgZmlsbD0iIzc0QjBERSI+PC9wYXRoPgogICAgICAgICAgICAgICAgPHBhdGggZD0iTTk5LDY1IEM5OSw2Mi4yMzgzOTkzIDk2Ljc2MTc3NSw2MCA5NC4wMDAzODkzLDYwIEM5MS4yMzkwMDM1LDYwIDg5LDYyLjIzODM5OTMgODksNjUgQzg5LDY3Ljc2MTYwMDcgOTEuMjM5MDAzNSw3MCA5NC4wMDAzODkzLDcwIEM5Ni43NjE3NzUsNzAgOTksNjcuNzYxNjAwNyA5OSw2NSIgaWQ9IkZpbGwtMy1Db3B5LTExIiBmaWxsPSIjNzRCMERFIj48L3BhdGg+CiAgICAgICAgICAgICAgICA8cGF0aCBkPSJNNzgsNDQgQzc4LDQxLjIzODM5OTMgNzUuNzYxNzc1LDM5IDczLjAwMDM4OTMsMzkgQzcwLjIzOTAwMzUsMzkgNjgsNDEuMjM4Mzk5MyA2OCw0NCBDNjgsNDYuNzYxNjAwNyA3MC4yMzkwMDM1LDQ5IDczLjAwMDM4OTMsNDkgQzc1Ljc2MTc3NSw0OSA3OCw0Ni43NjE2MDA3IDc4LDQ0IiBpZD0iRmlsbC0zLUNvcHktMTIiIGZpbGw9IiM3NEIwREUiPjwvcGF0aD4KICAgICAgICAgICAgICAgIDxwYXRoIGQ9Ik00MywyNCBDNDMsMjEuMjM4Mzk5MyA0MC43NjE3NzUsMTkgMzguMDAwMzg5MywxOSBDMzUuMjM5MDAzNSwxOSAzMywyMS4yMzgzOTkzIDMzLDI0IEMzMywyNi43NjE2MDA3IDM1LjIzOTAwMzUsMjkgMzguMDAwMzg5MywyOSBDNDAuNzYxNzc1LDI5IDQzLDI2Ljc2MTYwMDcgNDMsMjQiIGlkPSJGaWxsLTMtQ29weS0xMyIgZmlsbD0iIzc0QjBERSI+PC9wYXRoPgogICAgICAgICAgICAgICAgPHBhdGggZD0iTTEzOSwyOCBDMTM5LDI1LjIzODM5OTMgMTM2Ljc2MTc3NSwyMyAxMzQuMDAwMzg5LDIzIEMxMzEuMjM5MDA0LDIzIDEyOSwyNS4yMzgzOTkzIDEyOSwyOCBDMTI5LDMwLjc2MTYwMDcgMTMxLjIzOTAwNCwzMyAxMzQuMDAwMzg5LDMzIEMxMzYuNzYxNzc1LDMzIDEzOSwzMC43NjE2MDA3IDEzOSwyOCIgaWQ9IkZpbGwtMy1Db3B5LTE0IiBmaWxsPSIjNzRCMERFIj48L3BhdGg+CiAgICAgICAgICAgICAgICA8cGF0aCBkPSJNMzAsMzggQzMwLDM1LjIzODM5OTMgMjcuNzYxNzc1LDMzIDI1LjAwMDM4OTMsMzMgQzIyLjIzOTAwMzUsMzMgMjAsMzUuMjM4Mzk5MyAyMCwzOCBDMjAsNDAuNzYxNjAwNyAyMi4yMzkwMDM1LDQzIDI1LjAwMDM4OTMsNDMgQzI3Ljc2MTc3NSw0MyAzMCw0MC43NjE2MDA3IDMwLDM4IiBpZD0iRmlsbC0xNyIgZmlsbD0iI0Y3OTMxRSI+PC9wYXRoPgogICAgICAgICAgICAgICAgPHBhdGggZD0iTTIyLDEwMSBDMjIsOTguMjM4Mzk5MyAxOS43NjE3NzUsOTYgMTcuMDAwMzg5Myw5NiBDMTQuMjM5MDAzNSw5NiAxMiw5OC4yMzgzOTkzIDEyLDEwMSBDMTIsMTAzLjc2MTYwMSAxNC4yMzkwMDM1LDEwNiAxNy4wMDAzODkzLDEwNiBDMTkuNzYxNzc1LDEwNiAyMiwxMDMuNzYxNjAxIDIyLDEwMSIgaWQ9IkZpbGwtMTctQ29weSIgZmlsbD0iI0Y3OTMxRSI+PC9wYXRoPgogICAgICAgICAgICAgICAgPHBhdGggZD0iTTY2LDEwMCBDNjYsOTcuMjM4Mzk5MyA2My43NjE3NzUsOTUgNjEuMDAwMzg5Myw5NSBDNTguMjM5MDAzNSw5NSA1Niw5Ny4yMzgzOTkzIDU2LDEwMCBDNTYsMTAyLjc2MTYwMSA1OC4yMzkwMDM1LDEwNSA2MS4wMDAzODkzLDEwNSBDNjMuNzYxNzc1LDEwNSA2NiwxMDIuNzYxNjAxIDY2LDEwMCIgaWQ9IkZpbGwtMTctQ29weS0yIiBmaWxsPSIjRjc5MzFFIj48L3BhdGg+CiAgICAgICAgICAgICAgICA8cGF0aCBkPSJNOTgsODggQzk4LDg1LjIzODM5OTMgOTUuNzYxNzc1LDgzIDkzLjAwMDM4OTMsODMgQzkwLjIzOTAwMzUsODMgODgsODUuMjM4Mzk5MyA4OCw4OCBDODgsOTAuNzYxNjAwNyA5MC4yMzkwMDM1LDkzIDkzLjAwMDM4OTMsOTMgQzk1Ljc2MTc3NSw5MyA5OCw5MC43NjE2MDA3IDk4LDg4IiBpZD0iRmlsbC0xNy1Db3B5LTMiIGZpbGw9IiNGNzkzMUUiPjwvcGF0aD4KICAgICAgICAgICAgICAgIDxwYXRoIGQ9Ik03OCw3NCBDNzgsNzEuMjM4Mzk5MyA3NS43NjE3NzUsNjkgNzMuMDAwMzg5Myw2OSBDNzAuMjM5MDAzNSw2OSA2OCw3MS4yMzgzOTkzIDY4LDc0IEM2OCw3Ni43NjE2MDA3IDcwLjIzOTAwMzUsNzkgNzMuMDAwMzg5Myw3OSBDNzUuNzYxNzc1LDc5IDc4LDc2Ljc2MTYwMDcgNzgsNzQiIGlkPSJGaWxsLTE3LUNvcHktNCIgZmlsbD0iI0Y3OTMxRSI+PC9wYXRoPgogICAgICAgICAgICAgICAgPHBhdGggZD0iTTU5LDQ1IEM1OSw0Mi4yMzgzOTkzIDU2Ljc2MTc3NSw0MCA1NC4wMDAzODkzLDQwIEM1MS4yMzkwMDM1LDQwIDQ5LDQyLjIzODM5OTMgNDksNDUgQzQ5LDQ3Ljc2MTYwMDcgNTEuMjM5MDAzNSw1MCA1NC4wMDAzODkzLDUwIEM1Ni43NjE3NzUsNTAgNTksNDcuNzYxNjAwNyA1OSw0NSIgaWQ9IkZpbGwtMTctQ29weS01IiBmaWxsPSIjRjc5MzFFIj48L3BhdGg+CiAgICAgICAgICAgICAgICA8cGF0aCBkPSJNOTksNDEgQzk5LDM4LjIzODM5OTMgOTYuNzYxNzc1LDM2IDk0LjAwMDM4OTMsMzYgQzkxLjIzOTAwMzUsMzYgODksMzguMjM4Mzk5MyA4OSw0MSBDODksNDMuNzYxNjAwNyA5MS4yMzkwMDM1LDQ2IDk0LjAwMDM4OTMsNDYgQzk2Ljc2MTc3NSw0NiA5OSw0My43NjE2MDA3IDk5LDQxIiBpZD0iRmlsbC0xNy1Db3B5LTYiIGZpbGw9IiNGNzkzMUUiPjwvcGF0aD4KICAgICAgICAgICAgICAgIDxwYXRoIGQ9Ik02OCwxMiBDNjgsOS4yMzgzOTkyNSA2NS43NjE3NzUsNyA2My4wMDAzODkzLDcgQzYwLjIzOTAwMzUsNyA1OCw5LjIzODM5OTI1IDU4LDEyIEM1OCwxNC43NjE2MDA3IDYwLjIzOTAwMzUsMTcgNjMuMDAwMzg5MywxNyBDNjUuNzYxNzc1LDE3IDY4LDE0Ljc2MTYwMDcgNjgsMTIiIGlkPSJGaWxsLTE3LUNvcHktNyIgZmlsbD0iI0Y3OTMxRSI+PC9wYXRoPgogICAgICAgICAgICAgICAgPHBhdGggZD0iTTkyLDE5IEM5MiwxNi4yMzgzOTkzIDg5Ljc2MTc3NSwxNCA4Ny4wMDAzODkzLDE0IEM4NC4yMzkwMDM1LDE0IDgyLDE2LjIzODM5OTMgODIsMTkgQzgyLDIxLjc2MTYwMDcgODQuMjM5MDAzNSwyNCA4Ny4wMDAzODkzLDI0IEM4OS43NjE3NzUsMjQgOTIsMjEuNzYxNjAwNyA5MiwxOSIgaWQ9IkZpbGwtMTctQ29weS04IiBmaWxsPSIjRjc5MzFFIj48L3BhdGg+CiAgICAgICAgICAgICAgICA8cGF0aCBkPSJNMTEzLDUgQzExMywyLjIzODM5OTI1IDExMC43NjE3NzUsMCAxMDguMDAwMzg5LDAgQzEwNS4yMzkwMDQsMCAxMDMsMi4yMzgzOTkyNSAxMDMsNSBDMTAzLDcuNzYxNjAwNzUgMTA1LjIzOTAwNCwxMCAxMDguMDAwMzg5LDEwIEMxMTAuNzYxNzc1LDEwIDExMyw3Ljc2MTYwMDc1IDExMyw1IiBpZD0iRmlsbC0xNy1Db3B5LTkiIGZpbGw9IiNGNzkzMUUiPjwvcGF0aD4KICAgICAgICAgICAgICAgIDxwYXRoIGQ9Ik0xMjMsMzcgQzEyMywzNC4yMzgzOTkzIDEyMC43NjE3NzUsMzIgMTE4LjAwMDM4OSwzMiBDMTE1LjIzOTAwNCwzMiAxMTMsMzQuMjM4Mzk5MyAxMTMsMzcgQzExMywzOS43NjE2MDA3IDExNS4yMzkwMDQsNDIgMTE4LjAwMDM4OSw0MiBDMTIwLjc2MTc3NSw0MiAxMjMsMzkuNzYxNjAwNyAxMjMsMzciIGlkPSJGaWxsLTE3LUNvcHktMTAiIGZpbGw9IiNGNzkzMUUiPjwvcGF0aD4KICAgICAgICAgICAgICAgIDxwYXRoIGQ9Ik0xNDEsNTQgQzE0MSw1MS4yMzgzOTkzIDEzOC43NjE3NzUsNDkgMTM2LjAwMDM4OSw0OSBDMTMzLjIzOTAwNCw0OSAxMzEsNTEuMjM4Mzk5MyAxMzEsNTQgQzEzMSw1Ni43NjE2MDA3IDEzMy4yMzkwMDQsNTkgMTM2LjAwMDM4OSw1OSBDMTM4Ljc2MTc3NSw1OSAxNDEsNTYuNzYxNjAwNyAxNDEsNTQiIGlkPSJGaWxsLTE3LUNvcHktMTEiIGZpbGw9IiNGNzkzMUUiPjwvcGF0aD4KICAgICAgICAgICAgICAgIDxwYXRoIGQ9Ik0xNTcsNzUgQzE1Nyw3Mi4yMzgzOTkzIDE1NC43NjE3NzUsNzAgMTUyLjAwMDM4OSw3MCBDMTQ5LjIzOTAwNCw3MCAxNDcsNzIuMjM4Mzk5MyAxNDcsNzUgQzE0Nyw3Ny43NjE2MDA3IDE0OS4yMzkwMDQsODAgMTUyLjAwMDM4OSw4MCBDMTU0Ljc2MTc3NSw4MCAxNTcsNzcuNzYxNjAwNyAxNTcsNzUiIGlkPSJGaWxsLTE3LUNvcHktMTIiIGZpbGw9IiNGNzkzMUUiPjwvcGF0aD4KICAgICAgICAgICAgICAgIDxwYXRoIGQ9Ik0xMjAsNjYgQzEyMCw2My4yMzgzOTkzIDExNy43NjE3NzUsNjEgMTE1LjAwMDM4OSw2MSBDMTEyLjIzOTAwNCw2MSAxMTAsNjMuMjM4Mzk5MyAxMTAsNjYgQzExMCw2OC43NjE2MDA3IDExMi4yMzkwMDQsNzEgMTE1LjAwMDM4OSw3MSBDMTE3Ljc2MTc3NSw3MSAxMjAsNjguNzYxNjAwNyAxMjAsNjYiIGlkPSJGaWxsLTE3LUNvcHktMTMiIGZpbGw9IiNGNzkzMUUiPjwvcGF0aD4KICAgICAgICAgICAgICAgIDxwYXRoIGQ9Ik0xMzAsODggQzEzMCw4NS4yMzgzOTkzIDEyNy43NjE3NzUsODMgMTI1LjAwMDM4OSw4MyBDMTIyLjIzOTAwNCw4MyAxMjAsODUuMjM4Mzk5MyAxMjAsODggQzEyMCw5MC43NjE2MDA3IDEyMi4yMzkwMDQsOTMgMTI1LjAwMDM4OSw5MyBDMTI3Ljc2MTc3NSw5MyAxMzAsOTAuNzYxNjAwNyAxMzAsODgiIGlkPSJGaWxsLTE3LUNvcHktMTQiIGZpbGw9IiNGNzkzMUUiPjwvcGF0aD4KICAgICAgICAgICAgICAgIDxwYXRoIGQ9Ik0xNTEsMTEzIEMxNTEsMTEwLjIzODM5OSAxNDguNzYxNzc1LDEwOCAxNDYuMDAwMzg5LDEwOCBDMTQzLjIzOTAwNCwxMDggMTQxLDExMC4yMzgzOTkgMTQxLDExMyBDMTQxLDExNS43NjE2MDEgMTQzLjIzOTAwNCwxMTggMTQ2LjAwMDM4OSwxMTggQzE0OC43NjE3NzUsMTE4IDE1MSwxMTUuNzYxNjAxIDE1MSwxMTMiIGlkPSJGaWxsLTE3LUNvcHktMTUiIGZpbGw9IiNGNzkzMUUiPjwvcGF0aD4KICAgICAgICAgICAgPC9nPgogICAgICAgICAgICA8ZyBpZD0iMiIgdHJhbnNmb3JtPSJ0cmFuc2xhdGUoOTcxLjAwMDAwMCwgMTQuMDE1MzQzKSI+CiAgICAgICAgICAgICAgICA8cGF0aCBkPSJNMTksMTggQzE5LDE1LjIzODM5OTMgMTYuNzYxNzc1LDEzIDE0LjAwMDM4OTMsMTMgQzExLjIzOTAwMzUsMTMgOSwxNS4yMzgzOTkzIDksMTggQzksMjAuNzYxNjAwNyAxMS4yMzkwMDM1LDIzIDE0LjAwMDM4OTMsMjMgQzE2Ljc2MTc3NSwyMyAxOSwyMC43NjE2MDA3IDE5LDE4IiBpZD0iRmlsbC0zIiBmaWxsPSIjNzRCMERFIj48L3BhdGg+CiAgICAgICAgICAgICAgICA8cGF0aCBkPSJNMTMsNTEgQzEzLDQ4LjIzODM5OTMgMTAuNzYxNzc1LDQ2IDguMDAwMzg5MjYsNDYgQzUuMjM5MDAzNSw0NiAzLDQ4LjIzODM5OTMgMyw1MSBDMyw1My43NjE2MDA3IDUuMjM5MDAzNSw1NiA4LjAwMDM4OTI2LDU2IEMxMC43NjE3NzUsNTYgMTMsNTMuNzYxNjAwNyAxMyw1MSIgaWQ9IkZpbGwtMy1Db3B5IiBmaWxsPSIjNzRCMERFIj48L3BhdGg+CiAgICAgICAgICAgICAgICA8cGF0aCBkPSJNMzEsNzcgQzMxLDc0LjIzODM5OTMgMjguNzYxNzc1LDcyIDI2LjAwMDM4OTMsNzIgQzIzLjIzOTAwMzUsNzIgMjEsNzQuMjM4Mzk5MyAyMSw3NyBDMjEsNzkuNzYxNjAwNyAyMy4yMzkwMDM1LDgyIDI2LjAwMDM4OTMsODIgQzI4Ljc2MTc3NSw4MiAzMSw3OS43NjE2MDA3IDMxLDc3IiBpZD0iRmlsbC0zLUNvcHktMiIgZmlsbD0iIzc0QjBERSI+PC9wYXRoPgogICAgICAgICAgICAgICAgPHBhdGggZD0iTTEwLDg3IEMxMCw4NC4yMzgzOTkzIDcuNzYxNzc1MDEsODIgNS4wMDAzODkyNiw4MiBDMi4yMzkwMDM1LDgyIDAsODQuMjM4Mzk5MyAwLDg3IEMwLDg5Ljc2MTYwMDcgMi4yMzkwMDM1LDkyIDUuMDAwMzg5MjYsOTIgQzcuNzYxNzc1MDEsOTIgMTAsODkuNzYxNjAwNyAxMCw4NyIgaWQ9IkZpbGwtMy1Db3B5LTMiIGZpbGw9IiM3NEIwREUiPjwvcGF0aD4KICAgICAgICAgICAgICAgIDxwYXRoIGQ9Ik01NCw3NCBDNTQsNzEuMjM4Mzk5MyA1MS43NjE3NzUsNjkgNDkuMDAwMzg5Myw2OSBDNDYuMjM5MDAzNSw2OSA0NCw3MS4yMzgzOTkzIDQ0LDc0IEM0NCw3Ni43NjE2MDA3IDQ2LjIzOTAwMzUsNzkgNDkuMDAwMzg5Myw3OSBDNTEuNzYxNzc1LDc5IDU0LDc2Ljc2MTYwMDcgNTQsNzQiIGlkPSJGaWxsLTMtQ29weS00IiBmaWxsPSIjNzRCMERFIj48L3BhdGg+CiAgICAgICAgICAgICAgICA8cGF0aCBkPSJNNDMsMTAzIEM0MywxMDAuMjM4Mzk5IDQwLjc2MTc3NSw5OCAzOC4wMDAzODkzLDk4IEMzNS4yMzkwMDM1LDk4IDMzLDEwMC4yMzgzOTkgMzMsMTAzIEMzMywxMDUuNzYxNjAxIDM1LjIzOTAwMzUsMTA4IDM4LjAwMDM4OTMsMTA4IEM0MC43NjE3NzUsMTA4IDQzLDEwNS43NjE2MDEgNDMsMTAzIiBpZD0iRmlsbC0zLUNvcHktNSIgZmlsbD0iIzc0QjBERSI+PC9wYXRoPgogICAgICAgICAgICAgICAgPHBhdGggZD0iTTE5LDEyMSBDMTksMTE4LjIzODM5OSAxNi43NjE3NzUsMTE2IDE0LjAwMDM4OTMsMTE2IEMxMS4yMzkwMDM1LDExNiA5LDExOC4yMzgzOTkgOSwxMjEgQzksMTIzLjc2MTYwMSAxMS4yMzkwMDM1LDEyNiAxNC4wMDAzODkzLDEyNiBDMTYuNzYxNzc1LDEyNiAxOSwxMjMuNzYxNjAxIDE5LDEyMSIgaWQ9IkZpbGwtMy1Db3B5LTYiIGZpbGw9IiM3NEIwREUiPjwvcGF0aD4KICAgICAgICAgICAgICAgIDxwYXRoIGQ9Ik02MCwxMjggQzYwLDEyNS4yMzgzOTkgNTcuNzYxNzc1LDEyMyA1NS4wMDAzODkzLDEyMyBDNTIuMjM5MDAzNSwxMjMgNTAsMTI1LjIzODM5OSA1MCwxMjggQzUwLDEzMC43NjE2MDEgNTIuMjM5MDAzNSwxMzMgNTUuMDAwMzg5MywxMzMgQzU3Ljc2MTc3NSwxMzMgNjAsMTMwLjc2MTYwMSA2MCwxMjgiIGlkPSJGaWxsLTMtQ29weS03IiBmaWxsPSIjNzRCMERFIj48L3BhdGg+CiAgICAgICAgICAgICAgICA8cGF0aCBkPSJNMTAyLDEyOCBDMTAyLDEyNS4yMzgzOTkgOTkuNzYxNzc1LDEyMyA5Ny4wMDAzODkzLDEyMyBDOTQuMjM5MDAzNSwxMjMgOTIsMTI1LjIzODM5OSA5MiwxMjggQzkyLDEzMC43NjE2MDEgOTQuMjM5MDAzNSwxMzMgOTcuMDAwMzg5MywxMzMgQzk5Ljc2MTc3NSwxMzMgMTAyLDEzMC43NjE2MDEgMTAyLDEyOCIgaWQ9IkZpbGwtMy1Db3B5LTgiIGZpbGw9IiM3NEIwREUiPjwvcGF0aD4KICAgICAgICAgICAgICAgIDxwYXRoIGQ9Ik0xMzUsMTI4IEMxMzUsMTI1LjIzODM5OSAxMzIuNzYxNzc1LDEyMyAxMzAuMDAwMzg5LDEyMyBDMTI3LjIzOTAwNCwxMjMgMTI1LDEyNS4yMzgzOTkgMTI1LDEyOCBDMTI1LDEzMC43NjE2MDEgMTI3LjIzOTAwNCwxMzMgMTMwLjAwMDM4OSwxMzMgQzEzMi43NjE3NzUsMTMzIDEzNSwxMzAuNzYxNjAxIDEzNSwxMjgiIGlkPSJGaWxsLTMtQ29weS05IiBmaWxsPSIjNzRCMERFIj48L3BhdGg+CiAgICAgICAgICAgICAgICA8cGF0aCBkPSJNMTIwLDEwNSBDMTIwLDEwMi4yMzgzOTkgMTE3Ljc2MTc3NSwxMDAgMTE1LjAwMDM4OSwxMDAgQzExMi4yMzkwMDQsMTAwIDExMCwxMDIuMjM4Mzk5IDExMCwxMDUgQzExMCwxMDcuNzYxNjAxIDExMi4yMzkwMDQsMTEwIDExNS4wMDAzODksMTEwIEMxMTcuNzYxNzc1LDExMCAxMjAsMTA3Ljc2MTYwMSAxMjAsMTA1IiBpZD0iRmlsbC0zLUNvcHktMTAiIGZpbGw9IiM3NEIwREUiPjwvcGF0aD4KICAgICAgICAgICAgICAgIDxwYXRoIGQ9Ik04OCwxMDYgQzg4LDEwMy4yMzgzOTkgODUuNzYxNzc1LDEwMSA4My4wMDAzODkzLDEwMSBDODAuMjM5MDAzNSwxMDEgNzgsMTAzLjIzODM5OSA3OCwxMDYgQzc4LDEwOC43NjE2MDEgODAuMjM5MDAzNSwxMTEgODMuMDAwMzg5MywxMTEgQzg1Ljc2MTc3NSwxMTEgODgsMTA4Ljc2MTYwMSA4OCwxMDYiIGlkPSJGaWxsLTMtQ29weS0xNSIgZmlsbD0iIzc0QjBERSI+PC9wYXRoPgogICAgICAgICAgICAgICAgPHBhdGggZD0iTTk5LDY1IEM5OSw2Mi4yMzgzOTkzIDk2Ljc2MTc3NSw2MCA5NC4wMDAzODkzLDYwIEM5MS4yMzkwMDM1LDYwIDg5LDYyLjIzODM5OTMgODksNjUgQzg5LDY3Ljc2MTYwMDcgOTEuMjM5MDAzNSw3MCA5NC4wMDAzODkzLDcwIEM5Ni43NjE3NzUsNzAgOTksNjcuNzYxNjAwNyA5OSw2NSIgaWQ9IkZpbGwtMy1Db3B5LTExIiBmaWxsPSIjNzRCMERFIj48L3BhdGg+CiAgICAgICAgICAgICAgICA8cGF0aCBkPSJNNzgsNDQgQzc4LDQxLjIzODM5OTMgNzUuNzYxNzc1LDM5IDczLjAwMDM4OTMsMzkgQzcwLjIzOTAwMzUsMzkgNjgsNDEuMjM4Mzk5MyA2OCw0NCBDNjgsNDYuNzYxNjAwNyA3MC4yMzkwMDM1LDQ5IDczLjAwMDM4OTMsNDkgQzc1Ljc2MTc3NSw0OSA3OCw0Ni43NjE2MDA3IDc4LDQ0IiBpZD0iRmlsbC0zLUNvcHktMTIiIGZpbGw9IiM3NEIwREUiPjwvcGF0aD4KICAgICAgICAgICAgICAgIDxwYXRoIGQ9Ik00MywyNCBDNDMsMjEuMjM4Mzk5MyA0MC43NjE3NzUsMTkgMzguMDAwMzg5MywxOSBDMzUuMjM5MDAzNSwxOSAzMywyMS4yMzgzOTkzIDMzLDI0IEMzMywyNi43NjE2MDA3IDM1LjIzOTAwMzUsMjkgMzguMDAwMzg5MywyOSBDNDAuNzYxNzc1LDI5IDQzLDI2Ljc2MTYwMDcgNDMsMjQiIGlkPSJGaWxsLTMtQ29weS0xMyIgZmlsbD0iIzc0QjBERSI+PC9wYXRoPgogICAgICAgICAgICAgICAgPHBhdGggZD0iTTEzOSwyOCBDMTM5LDI1LjIzODM5OTMgMTM2Ljc2MTc3NSwyMyAxMzQuMDAwMzg5LDIzIEMxMzEuMjM5MDA0LDIzIDEyOSwyNS4yMzgzOTkzIDEyOSwyOCBDMTI5LDMwLjc2MTYwMDcgMTMxLjIzOTAwNCwzMyAxMzQuMDAwMzg5LDMzIEMxMzYuNzYxNzc1LDMzIDEzOSwzMC43NjE2MDA3IDEzOSwyOCIgaWQ9IkZpbGwtMy1Db3B5LTE0IiBmaWxsPSIjNzRCMERFIj48L3BhdGg+CiAgICAgICAgICAgICAgICA8cGF0aCBkPSJNMzAsMzggQzMwLDM1LjIzODM5OTMgMjcuNzYxNzc1LDMzIDI1LjAwMDM4OTMsMzMgQzIyLjIzOTAwMzUsMzMgMjAsMzUuMjM4Mzk5MyAyMCwzOCBDMjAsNDAuNzYxNjAwNyAyMi4yMzkwMDM1LDQzIDI1LjAwMDM4OTMsNDMgQzI3Ljc2MTc3NSw0MyAzMCw0MC43NjE2MDA3IDMwLDM4IiBpZD0iRmlsbC0xNyIgZmlsbD0iI0Y3OTMxRSI+PC9wYXRoPgogICAgICAgICAgICAgICAgPHBhdGggZD0iTTIyLDEwMSBDMjIsOTguMjM4Mzk5MyAxOS43NjE3NzUsOTYgMTcuMDAwMzg5Myw5NiBDMTQuMjM5MDAzNSw5NiAxMiw5OC4yMzgzOTkzIDEyLDEwMSBDMTIsMTAzLjc2MTYwMSAxNC4yMzkwMDM1LDEwNiAxNy4wMDAzODkzLDEwNiBDMTkuNzYxNzc1LDEwNiAyMiwxMDMuNzYxNjAxIDIyLDEwMSIgaWQ9IkZpbGwtMTctQ29weSIgZmlsbD0iI0Y3OTMxRSI+PC9wYXRoPgogICAgICAgICAgICAgICAgPHBhdGggZD0iTTY2LDEwMCBDNjYsOTcuMjM4Mzk5MyA2My43NjE3NzUsOTUgNjEuMDAwMzg5Myw5NSBDNTguMjM5MDAzNSw5NSA1Niw5Ny4yMzgzOTkzIDU2LDEwMCBDNTYsMTAyLjc2MTYwMSA1OC4yMzkwMDM1LDEwNSA2MS4wMDAzODkzLDEwNSBDNjMuNzYxNzc1LDEwNSA2NiwxMDIuNzYxNjAxIDY2LDEwMCIgaWQ9IkZpbGwtMTctQ29weS0yIiBmaWxsPSIjRjc5MzFFIj48L3BhdGg+CiAgICAgICAgICAgICAgICA8cGF0aCBkPSJNOTgsODggQzk4LDg1LjIzODM5OTMgOTUuNzYxNzc1LDgzIDkzLjAwMDM4OTMsODMgQzkwLjIzOTAwMzUsODMgODgsODUuMjM4Mzk5MyA4OCw4OCBDODgsOTAuNzYxNjAwNyA5MC4yMzkwMDM1LDkzIDkzLjAwMDM4OTMsOTMgQzk1Ljc2MTc3NSw5MyA5OCw5MC43NjE2MDA3IDk4LDg4IiBpZD0iRmlsbC0xNy1Db3B5LTMiIGZpbGw9IiNGNzkzMUUiPjwvcGF0aD4KICAgICAgICAgICAgICAgIDxwYXRoIGQ9Ik03OCw3NCBDNzgsNzEuMjM4Mzk5MyA3NS43NjE3NzUsNjkgNzMuMDAwMzg5Myw2OSBDNzAuMjM5MDAzNSw2OSA2OCw3MS4yMzgzOTkzIDY4LDc0IEM2OCw3Ni43NjE2MDA3IDcwLjIzOTAwMzUsNzkgNzMuMDAwMzg5Myw3OSBDNzUuNzYxNzc1LDc5IDc4LDc2Ljc2MTYwMDcgNzgsNzQiIGlkPSJGaWxsLTE3LUNvcHktNCIgZmlsbD0iI0Y3OTMxRSI+PC9wYXRoPgogICAgICAgICAgICAgICAgPHBhdGggZD0iTTU5LDQ1IEM1OSw0Mi4yMzgzOTkzIDU2Ljc2MTc3NSw0MCA1NC4wMDAzODkzLDQwIEM1MS4yMzkwMDM1LDQwIDQ5LDQyLjIzODM5OTMgNDksNDUgQzQ5LDQ3Ljc2MTYwMDcgNTEuMjM5MDAzNSw1MCA1NC4wMDAzODkzLDUwIEM1Ni43NjE3NzUsNTAgNTksNDcuNzYxNjAwNyA1OSw0NSIgaWQ9IkZpbGwtMTctQ29weS01IiBmaWxsPSIjRjc5MzFFIj48L3BhdGg+CiAgICAgICAgICAgICAgICA8cGF0aCBkPSJNOTksNDEgQzk5LDM4LjIzODM5OTMgOTYuNzYxNzc1LDM2IDk0LjAwMDM4OTMsMzYgQzkxLjIzOTAwMzUsMzYgODksMzguMjM4Mzk5MyA4OSw0MSBDODksNDMuNzYxNjAwNyA5MS4yMzkwMDM1LDQ2IDk0LjAwMDM4OTMsNDYgQzk2Ljc2MTc3NSw0NiA5OSw0My43NjE2MDA3IDk5LDQxIiBpZD0iRmlsbC0xNy1Db3B5LTYiIGZpbGw9IiNGNzkzMUUiPjwvcGF0aD4KICAgICAgICAgICAgICAgIDxwYXRoIGQ9Ik02OCwxMiBDNjgsOS4yMzgzOTkyNSA2NS43NjE3NzUsNyA2My4wMDAzODkzLDcgQzYwLjIzOTAwMzUsNyA1OCw5LjIzODM5OTI1IDU4LDEyIEM1OCwxNC43NjE2MDA3IDYwLjIzOTAwMzUsMTcgNjMuMDAwMzg5MywxNyBDNjUuNzYxNzc1LDE3IDY4LDE0Ljc2MTYwMDcgNjgsMTIiIGlkPSJGaWxsLTE3LUNvcHktNyIgZmlsbD0iI0Y3OTMxRSI+PC9wYXRoPgogICAgICAgICAgICAgICAgPHBhdGggZD0iTTkyLDE5IEM5MiwxNi4yMzgzOTkzIDg5Ljc2MTc3NSwxNCA4Ny4wMDAzODkzLDE0IEM4NC4yMzkwMDM1LDE0IDgyLDE2LjIzODM5OTMgODIsMTkgQzgyLDIxLjc2MTYwMDcgODQuMjM5MDAzNSwyNCA4Ny4wMDAzODkzLDI0IEM4OS43NjE3NzUsMjQgOTIsMjEuNzYxNjAwNyA5MiwxOSIgaWQ9IkZpbGwtMTctQ29weS04IiBmaWxsPSIjRjc5MzFFIj48L3BhdGg+CiAgICAgICAgICAgICAgICA8cGF0aCBkPSJNMTEzLDUgQzExMywyLjIzODM5OTI1IDExMC43NjE3NzUsMCAxMDguMDAwMzg5LDAgQzEwNS4yMzkwMDQsMCAxMDMsMi4yMzgzOTkyNSAxMDMsNSBDMTAzLDcuNzYxNjAwNzUgMTA1LjIzOTAwNCwxMCAxMDguMDAwMzg5LDEwIEMxMTAuNzYxNzc1LDEwIDExMyw3Ljc2MTYwMDc1IDExMyw1IiBpZD0iRmlsbC0xNy1Db3B5LTkiIGZpbGw9IiNGNzkzMUUiPjwvcGF0aD4KICAgICAgICAgICAgICAgIDxwYXRoIGQ9Ik0xMjMsMzcgQzEyMywzNC4yMzgzOTkzIDEyMC43NjE3NzUsMzIgMTE4LjAwMDM4OSwzMiBDMTE1LjIzOTAwNCwzMiAxMTMsMzQuMjM4Mzk5MyAxMTMsMzcgQzExMywzOS43NjE2MDA3IDExNS4yMzkwMDQsNDIgMTE4LjAwMDM4OSw0MiBDMTIwLjc2MTc3NSw0MiAxMjMsMzkuNzYxNjAwNyAxMjMsMzciIGlkPSJGaWxsLTE3LUNvcHktMTAiIGZpbGw9IiNGNzkzMUUiPjwvcGF0aD4KICAgICAgICAgICAgICAgIDxwYXRoIGQ9Ik0xNDEsNTQgQzE0MSw1MS4yMzgzOTkzIDEzOC43NjE3NzUsNDkgMTM2LjAwMDM4OSw0OSBDMTMzLjIzOTAwNCw0OSAxMzEsNTEuMjM4Mzk5MyAxMzEsNTQgQzEzMSw1Ni43NjE2MDA3IDEzMy4yMzkwMDQsNTkgMTM2LjAwMDM4OSw1OSBDMTM4Ljc2MTc3NSw1OSAxNDEsNTYuNzYxNjAwNyAxNDEsNTQiIGlkPSJGaWxsLTE3LUNvcHktMTEiIGZpbGw9IiNGNzkzMUUiPjwvcGF0aD4KICAgICAgICAgICAgICAgIDxwYXRoIGQ9Ik0xNTcsNzUgQzE1Nyw3Mi4yMzgzOTkzIDE1NC43NjE3NzUsNzAgMTUyLjAwMDM4OSw3MCBDMTQ5LjIzOTAwNCw3MCAxNDcsNzIuMjM4Mzk5MyAxNDcsNzUgQzE0Nyw3Ny43NjE2MDA3IDE0OS4yMzkwMDQsODAgMTUyLjAwMDM4OSw4MCBDMTU0Ljc2MTc3NSw4MCAxNTcsNzcuNzYxNjAwNyAxNTcsNzUiIGlkPSJGaWxsLTE3LUNvcHktMTIiIGZpbGw9IiNGNzkzMUUiPjwvcGF0aD4KICAgICAgICAgICAgICAgIDxwYXRoIGQ9Ik0xMjAsNjYgQzEyMCw2My4yMzgzOTkzIDExNy43NjE3NzUsNjEgMTE1LjAwMDM4OSw2MSBDMTEyLjIzOTAwNCw2MSAxMTAsNjMuMjM4Mzk5MyAxMTAsNjYgQzExMCw2OC43NjE2MDA3IDExMi4yMzkwMDQsNzEgMTE1LjAwMDM4OSw3MSBDMTE3Ljc2MTc3NSw3MSAxMjAsNjguNzYxNjAwNyAxMjAsNjYiIGlkPSJGaWxsLTE3LUNvcHktMTMiIGZpbGw9IiNGNzkzMUUiPjwvcGF0aD4KICAgICAgICAgICAgICAgIDxwYXRoIGQ9Ik0xMzAsODggQzEzMCw4NS4yMzgzOTkzIDEyNy43NjE3NzUsODMgMTI1LjAwMDM4OSw4MyBDMTIyLjIzOTAwNCw4MyAxMjAsODUuMjM4Mzk5MyAxMjAsODggQzEyMCw5MC43NjE2MDA3IDEyMi4yMzkwMDQsOTMgMTI1LjAwMDM4OSw5MyBDMTI3Ljc2MTc3NSw5MyAxMzAsOTAuNzYxNjAwNyAxMzAsODgiIGlkPSJGaWxsLTE3LUNvcHktMTQiIGZpbGw9IiNGNzkzMUUiPjwvcGF0aD4KICAgICAgICAgICAgICAgIDxwYXRoIGQ9Ik0xNTEsMTEzIEMxNTEsMTEwLjIzODM5OSAxNDguNzYxNzc1LDEwOCAxNDYuMDAwMzg5LDEwOCBDMTQzLjIzOTAwNCwxMDggMTQxLDExMC4yMzgzOTkgMTQxLDExMyBDMTQxLDExNS43NjE2MDEgMTQzLjIzOTAwNCwxMTggMTQ2LjAwMDM4OSwxMTggQzE0OC43NjE3NzUsMTE4IDE1MSwxMTUuNzYxNjAxIDE1MSwxMTMiIGlkPSJGaWxsLTE3LUNvcHktMTUiIGZpbGw9IiNGNzkzMUUiPjwvcGF0aD4KICAgICAgICAgICAgPC9nPgogICAgICAgICAgICA8ZyBpZD0iMSIgdHJhbnNmb3JtPSJ0cmFuc2xhdGUoNzIwLjAwMDAwMCwgMTQuMDE1MzQzKSI+CiAgICAgICAgICAgICAgICA8cGF0aCBkPSJNMTksMTggQzE5LDE1LjIzODM5OTMgMTYuNzYxNzc1LDEzIDE0LjAwMDM4OTMsMTMgQzExLjIzOTAwMzUsMTMgOSwxNS4yMzgzOTkzIDksMTggQzksMjAuNzYxNjAwNyAxMS4yMzkwMDM1LDIzIDE0LjAwMDM4OTMsMjMgQzE2Ljc2MTc3NSwyMyAxOSwyMC43NjE2MDA3IDE5LDE4IiBpZD0iRmlsbC0zIiBmaWxsPSIjNzRCMERFIj48L3BhdGg+CiAgICAgICAgICAgICAgICA8cGF0aCBkPSJNMTMsNTEgQzEzLDQ4LjIzODM5OTMgMTAuNzYxNzc1LDQ2IDguMDAwMzg5MjYsNDYgQzUuMjM5MDAzNSw0NiAzLDQ4LjIzODM5OTMgMyw1MSBDMyw1My43NjE2MDA3IDUuMjM5MDAzNSw1NiA4LjAwMDM4OTI2LDU2IEMxMC43NjE3NzUsNTYgMTMsNTMuNzYxNjAwNyAxMyw1MSIgaWQ9IkZpbGwtMy1Db3B5IiBmaWxsPSIjNzRCMERFIj48L3BhdGg+CiAgICAgICAgICAgICAgICA8cGF0aCBkPSJNMzEsNzcgQzMxLDc0LjIzODM5OTMgMjguNzYxNzc1LDcyIDI2LjAwMDM4OTMsNzIgQzIzLjIzOTAwMzUsNzIgMjEsNzQuMjM4Mzk5MyAyMSw3NyBDMjEsNzkuNzYxNjAwNyAyMy4yMzkwMDM1LDgyIDI2LjAwMDM4OTMsODIgQzI4Ljc2MTc3NSw4MiAzMSw3OS43NjE2MDA3IDMxLDc3IiBpZD0iRmlsbC0zLUNvcHktMiIgZmlsbD0iIzc0QjBERSI+PC9wYXRoPgogICAgICAgICAgICAgICAgPHBhdGggZD0iTTEwLDg3IEMxMCw4NC4yMzgzOTkzIDcuNzYxNzc1MDEsODIgNS4wMDAzODkyNiw4MiBDMi4yMzkwMDM1LDgyIDAsODQuMjM4Mzk5MyAwLDg3IEMwLDg5Ljc2MTYwMDcgMi4yMzkwMDM1LDkyIDUuMDAwMzg5MjYsOTIgQzcuNzYxNzc1MDEsOTIgMTAsODkuNzYxNjAwNyAxMCw4NyIgaWQ9IkZpbGwtMy1Db3B5LTMiIGZpbGw9IiM3NEIwREUiPjwvcGF0aD4KICAgICAgICAgICAgICAgIDxwYXRoIGQ9Ik01NCw3NCBDNTQsNzEuMjM4Mzk5MyA1MS43NjE3NzUsNjkgNDkuMDAwMzg5Myw2OSBDNDYuMjM5MDAzNSw2OSA0NCw3MS4yMzgzOTkzIDQ0LDc0IEM0NCw3Ni43NjE2MDA3IDQ2LjIzOTAwMzUsNzkgNDkuMDAwMzg5Myw3OSBDNTEuNzYxNzc1LDc5IDU0LDc2Ljc2MTYwMDcgNTQsNzQiIGlkPSJGaWxsLTMtQ29weS00IiBmaWxsPSIjNzRCMERFIj48L3BhdGg+CiAgICAgICAgICAgICAgICA8cGF0aCBkPSJNNDMsMTAzIEM0MywxMDAuMjM4Mzk5IDQwLjc2MTc3NSw5OCAzOC4wMDAzODkzLDk4IEMzNS4yMzkwMDM1LDk4IDMzLDEwMC4yMzgzOTkgMzMsMTAzIEMzMywxMDUuNzYxNjAxIDM1LjIzOTAwMzUsMTA4IDM4LjAwMDM4OTMsMTA4IEM0MC43NjE3NzUsMTA4IDQzLDEwNS43NjE2MDEgNDMsMTAzIiBpZD0iRmlsbC0zLUNvcHktNSIgZmlsbD0iIzc0QjBERSI+PC9wYXRoPgogICAgICAgICAgICAgICAgPHBhdGggZD0iTTE5LDEyMSBDMTksMTE4LjIzODM5OSAxNi43NjE3NzUsMTE2IDE0LjAwMDM4OTMsMTE2IEMxMS4yMzkwMDM1LDExNiA5LDExOC4yMzgzOTkgOSwxMjEgQzksMTIzLjc2MTYwMSAxMS4yMzkwMDM1LDEyNiAxNC4wMDAzODkzLDEyNiBDMTYuNzYxNzc1LDEyNiAxOSwxMjMuNzYxNjAxIDE5LDEyMSIgaWQ9IkZpbGwtMy1Db3B5LTYiIGZpbGw9IiM3NEIwREUiPjwvcGF0aD4KICAgICAgICAgICAgICAgIDxwYXRoIGQ9Ik02MCwxMjggQzYwLDEyNS4yMzgzOTkgNTcuNzYxNzc1LDEyMyA1NS4wMDAzODkzLDEyMyBDNTIuMjM5MDAzNSwxMjMgNTAsMTI1LjIzODM5OSA1MCwxMjggQzUwLDEzMC43NjE2MDEgNTIuMjM5MDAzNSwxMzMgNTUuMDAwMzg5MywxMzMgQzU3Ljc2MTc3NSwxMzMgNjAsMTMwLjc2MTYwMSA2MCwxMjgiIGlkPSJGaWxsLTMtQ29weS03IiBmaWxsPSIjNzRCMERFIj48L3BhdGg+CiAgICAgICAgICAgICAgICA8cGF0aCBkPSJNMTAyLDEyOCBDMTAyLDEyNS4yMzgzOTkgOTkuNzYxNzc1LDEyMyA5Ny4wMDAzODkzLDEyMyBDOTQuMjM5MDAzNSwxMjMgOTIsMTI1LjIzODM5OSA5MiwxMjggQzkyLDEzMC43NjE2MDEgOTQuMjM5MDAzNSwxMzMgOTcuMDAwMzg5MywxMzMgQzk5Ljc2MTc3NSwxMzMgMTAyLDEzMC43NjE2MDEgMTAyLDEyOCIgaWQ9IkZpbGwtMy1Db3B5LTgiIGZpbGw9IiM3NEIwREUiPjwvcGF0aD4KICAgICAgICAgICAgICAgIDxwYXRoIGQ9Ik0xMzUsMTI4IEMxMzUsMTI1LjIzODM5OSAxMzIuNzYxNzc1LDEyMyAxMzAuMDAwMzg5LDEyMyBDMTI3LjIzOTAwNCwxMjMgMTI1LDEyNS4yMzgzOTkgMTI1LDEyOCBDMTI1LDEzMC43NjE2MDEgMTI3LjIzOTAwNCwxMzMgMTMwLjAwMDM4OSwxMzMgQzEzMi43NjE3NzUsMTMzIDEzNSwxMzAuNzYxNjAxIDEzNSwxMjgiIGlkPSJGaWxsLTMtQ29weS05IiBmaWxsPSIjNzRCMERFIj48L3BhdGg+CiAgICAgICAgICAgICAgICA8cGF0aCBkPSJNMTIwLDEwNSBDMTIwLDEwMi4yMzgzOTkgMTE3Ljc2MTc3NSwxMDAgMTE1LjAwMDM4OSwxMDAgQzExMi4yMzkwMDQsMTAwIDExMCwxMDIuMjM4Mzk5IDExMCwxMDUgQzExMCwxMDcuNzYxNjAxIDExMi4yMzkwMDQsMTEwIDExNS4wMDAzODksMTEwIEMxMTcuNzYxNzc1LDExMCAxMjAsMTA3Ljc2MTYwMSAxMjAsMTA1IiBpZD0iRmlsbC0zLUNvcHktMTAiIGZpbGw9IiM3NEIwREUiPjwvcGF0aD4KICAgICAgICAgICAgICAgIDxwYXRoIGQ9Ik04OCwxMDYgQzg4LDEwMy4yMzgzOTkgODUuNzYxNzc1LDEwMSA4My4wMDAzODkzLDEwMSBDODAuMjM5MDAzNSwxMDEgNzgsMTAzLjIzODM5OSA3OCwxMDYgQzc4LDEwOC43NjE2MDEgODAuMjM5MDAzNSwxMTEgODMuMDAwMzg5MywxMTEgQzg1Ljc2MTc3NSwxMTEgODgsMTA4Ljc2MTYwMSA4OCwxMDYiIGlkPSJGaWxsLTMtQ29weS0xNSIgZmlsbD0iIzc0QjBERSI+PC9wYXRoPgogICAgICAgICAgICAgICAgPHBhdGggZD0iTTk5LDY1IEM5OSw2Mi4yMzgzOTkzIDk2Ljc2MTc3NSw2MCA5NC4wMDAzODkzLDYwIEM5MS4yMzkwMDM1LDYwIDg5LDYyLjIzODM5OTMgODksNjUgQzg5LDY3Ljc2MTYwMDcgOTEuMjM5MDAzNSw3MCA5NC4wMDAzODkzLDcwIEM5Ni43NjE3NzUsNzAgOTksNjcuNzYxNjAwNyA5OSw2NSIgaWQ9IkZpbGwtMy1Db3B5LTExIiBmaWxsPSIjNzRCMERFIj48L3BhdGg+CiAgICAgICAgICAgICAgICA8cGF0aCBkPSJNNzgsNDQgQzc4LDQxLjIzODM5OTMgNzUuNzYxNzc1LDM5IDczLjAwMDM4OTMsMzkgQzcwLjIzOTAwMzUsMzkgNjgsNDEuMjM4Mzk5MyA2OCw0NCBDNjgsNDYuNzYxNjAwNyA3MC4yMzkwMDM1LDQ5IDczLjAwMDM4OTMsNDkgQzc1Ljc2MTc3NSw0OSA3OCw0Ni43NjE2MDA3IDc4LDQ0IiBpZD0iRmlsbC0zLUNvcHktMTIiIGZpbGw9IiM3NEIwREUiPjwvcGF0aD4KICAgICAgICAgICAgICAgIDxwYXRoIGQ9Ik00MywyNCBDNDMsMjEuMjM4Mzk5MyA0MC43NjE3NzUsMTkgMzguMDAwMzg5MywxOSBDMzUuMjM5MDAzNSwxOSAzMywyMS4yMzgzOTkzIDMzLDI0IEMzMywyNi43NjE2MDA3IDM1LjIzOTAwMzUsMjkgMzguMDAwMzg5MywyOSBDNDAuNzYxNzc1LDI5IDQzLDI2Ljc2MTYwMDcgNDMsMjQiIGlkPSJGaWxsLTMtQ29weS0xMyIgZmlsbD0iIzc0QjBERSI+PC9wYXRoPgogICAgICAgICAgICAgICAgPHBhdGggZD0iTTEzOSwyOCBDMTM5LDI1LjIzODM5OTMgMTM2Ljc2MTc3NSwyMyAxMzQuMDAwMzg5LDIzIEMxMzEuMjM5MDA0LDIzIDEyOSwyNS4yMzgzOTkzIDEyOSwyOCBDMTI5LDMwLjc2MTYwMDcgMTMxLjIzOTAwNCwzMyAxMzQuMDAwMzg5LDMzIEMxMzYuNzYxNzc1LDMzIDEzOSwzMC43NjE2MDA3IDEzOSwyOCIgaWQ9IkZpbGwtMy1Db3B5LTE0IiBmaWxsPSIjNzRCMERFIj48L3BhdGg+CiAgICAgICAgICAgICAgICA8cGF0aCBkPSJNMzAsMzggQzMwLDM1LjIzODM5OTMgMjcuNzYxNzc1LDMzIDI1LjAwMDM4OTMsMzMgQzIyLjIzOTAwMzUsMzMgMjAsMzUuMjM4Mzk5MyAyMCwzOCBDMjAsNDAuNzYxNjAwNyAyMi4yMzkwMDM1LDQzIDI1LjAwMDM4OTMsNDMgQzI3Ljc2MTc3NSw0MyAzMCw0MC43NjE2MDA3IDMwLDM4IiBpZD0iRmlsbC0xNyIgZmlsbD0iI0Y3OTMxRSI+PC9wYXRoPgogICAgICAgICAgICAgICAgPHBhdGggZD0iTTIyLDEwMSBDMjIsOTguMjM4Mzk5MyAxOS43NjE3NzUsOTYgMTcuMDAwMzg5Myw5NiBDMTQuMjM5MDAzNSw5NiAxMiw5OC4yMzgzOTkzIDEyLDEwMSBDMTIsMTAzLjc2MTYwMSAxNC4yMzkwMDM1LDEwNiAxNy4wMDAzODkzLDEwNiBDMTkuNzYxNzc1LDEwNiAyMiwxMDMuNzYxNjAxIDIyLDEwMSIgaWQ9IkZpbGwtMTctQ29weSIgZmlsbD0iI0Y3OTMxRSI+PC9wYXRoPgogICAgICAgICAgICAgICAgPHBhdGggZD0iTTY2LDEwMCBDNjYsOTcuMjM4Mzk5MyA2My43NjE3NzUsOTUgNjEuMDAwMzg5Myw5NSBDNTguMjM5MDAzNSw5NSA1Niw5Ny4yMzgzOTkzIDU2LDEwMCBDNTYsMTAyLjc2MTYwMSA1OC4yMzkwMDM1LDEwNSA2MS4wMDAzODkzLDEwNSBDNjMuNzYxNzc1LDEwNSA2NiwxMDIuNzYxNjAxIDY2LDEwMCIgaWQ9IkZpbGwtMTctQ29weS0yIiBmaWxsPSIjRjc5MzFFIj48L3BhdGg+CiAgICAgICAgICAgICAgICA8cGF0aCBkPSJNOTgsODggQzk4LDg1LjIzODM5OTMgOTUuNzYxNzc1LDgzIDkzLjAwMDM4OTMsODMgQzkwLjIzOTAwMzUsODMgODgsODUuMjM4Mzk5MyA4OCw4OCBDODgsOTAuNzYxNjAwNyA5MC4yMzkwMDM1LDkzIDkzLjAwMDM4OTMsOTMgQzk1Ljc2MTc3NSw5MyA5OCw5MC43NjE2MDA3IDk4LDg4IiBpZD0iRmlsbC0xNy1Db3B5LTMiIGZpbGw9IiNGNzkzMUUiPjwvcGF0aD4KICAgICAgICAgICAgICAgIDxwYXRoIGQ9Ik03OCw3NCBDNzgsNzEuMjM4Mzk5MyA3NS43NjE3NzUsNjkgNzMuMDAwMzg5Myw2OSBDNzAuMjM5MDAzNSw2OSA2OCw3MS4yMzgzOTkzIDY4LDc0IEM2OCw3Ni43NjE2MDA3IDcwLjIzOTAwMzUsNzkgNzMuMDAwMzg5Myw3OSBDNzUuNzYxNzc1LDc5IDc4LDc2Ljc2MTYwMDcgNzgsNzQiIGlkPSJGaWxsLTE3LUNvcHktNCIgZmlsbD0iI0Y3OTMxRSI+PC9wYXRoPgogICAgICAgICAgICAgICAgPHBhdGggZD0iTTU5LDQ1IEM1OSw0Mi4yMzgzOTkzIDU2Ljc2MTc3NSw0MCA1NC4wMDAzODkzLDQwIEM1MS4yMzkwMDM1LDQwIDQ5LDQyLjIzODM5OTMgNDksNDUgQzQ5LDQ3Ljc2MTYwMDcgNTEuMjM5MDAzNSw1MCA1NC4wMDAzODkzLDUwIEM1Ni43NjE3NzUsNTAgNTksNDcuNzYxNjAwNyA1OSw0NSIgaWQ9IkZpbGwtMTctQ29weS01IiBmaWxsPSIjRjc5MzFFIj48L3BhdGg+CiAgICAgICAgICAgICAgICA8cGF0aCBkPSJNOTksNDEgQzk5LDM4LjIzODM5OTMgOTYuNzYxNzc1LDM2IDk0LjAwMDM4OTMsMzYgQzkxLjIzOTAwMzUsMzYgODksMzguMjM4Mzk5MyA4OSw0MSBDODksNDMuNzYxNjAwNyA5MS4yMzkwMDM1LDQ2IDk0LjAwMDM4OTMsNDYgQzk2Ljc2MTc3NSw0NiA5OSw0My43NjE2MDA3IDk5LDQxIiBpZD0iRmlsbC0xNy1Db3B5LTYiIGZpbGw9IiNGNzkzMUUiPjwvcGF0aD4KICAgICAgICAgICAgICAgIDxwYXRoIGQ9Ik02OCwxMiBDNjgsOS4yMzgzOTkyNSA2NS43NjE3NzUsNyA2My4wMDAzODkzLDcgQzYwLjIzOTAwMzUsNyA1OCw5LjIzODM5OTI1IDU4LDEyIEM1OCwxNC43NjE2MDA3IDYwLjIzOTAwMzUsMTcgNjMuMDAwMzg5MywxNyBDNjUuNzYxNzc1LDE3IDY4LDE0Ljc2MTYwMDcgNjgsMTIiIGlkPSJGaWxsLTE3LUNvcHktNyIgZmlsbD0iI0Y3OTMxRSI+PC9wYXRoPgogICAgICAgICAgICAgICAgPHBhdGggZD0iTTkyLDE5IEM5MiwxNi4yMzgzOTkzIDg5Ljc2MTc3NSwxNCA4Ny4wMDAzODkzLDE0IEM4NC4yMzkwMDM1LDE0IDgyLDE2LjIzODM5OTMgODIsMTkgQzgyLDIxLjc2MTYwMDcgODQuMjM5MDAzNSwyNCA4Ny4wMDAzODkzLDI0IEM4OS43NjE3NzUsMjQgOTIsMjEuNzYxNjAwNyA5MiwxOSIgaWQ9IkZpbGwtMTctQ29weS04IiBmaWxsPSIjRjc5MzFFIj48L3BhdGg+CiAgICAgICAgICAgICAgICA8cGF0aCBkPSJNMTEzLDUgQzExMywyLjIzODM5OTI1IDExMC43NjE3NzUsMCAxMDguMDAwMzg5LDAgQzEwNS4yMzkwMDQsMCAxMDMsMi4yMzgzOTkyNSAxMDMsNSBDMTAzLDcuNzYxNjAwNzUgMTA1LjIzOTAwNCwxMCAxMDguMDAwMzg5LDEwIEMxMTAuNzYxNzc1LDEwIDExMyw3Ljc2MTYwMDc1IDExMyw1IiBpZD0iRmlsbC0xNy1Db3B5LTkiIGZpbGw9IiNGNzkzMUUiPjwvcGF0aD4KICAgICAgICAgICAgICAgIDxwYXRoIGQ9Ik0xMjMsMzcgQzEyMywzNC4yMzgzOTkzIDEyMC43NjE3NzUsMzIgMTE4LjAwMDM4OSwzMiBDMTE1LjIzOTAwNCwzMiAxMTMsMzQuMjM4Mzk5MyAxMTMsMzcgQzExMywzOS43NjE2MDA3IDExNS4yMzkwMDQsNDIgMTE4LjAwMDM4OSw0MiBDMTIwLjc2MTc3NSw0MiAxMjMsMzkuNzYxNjAwNyAxMjMsMzciIGlkPSJGaWxsLTE3LUNvcHktMTAiIGZpbGw9IiNGNzkzMUUiPjwvcGF0aD4KICAgICAgICAgICAgICAgIDxwYXRoIGQ9Ik0xNDEsNTQgQzE0MSw1MS4yMzgzOTkzIDEzOC43NjE3NzUsNDkgMTM2LjAwMDM4OSw0OSBDMTMzLjIzOTAwNCw0OSAxMzEsNTEuMjM4Mzk5MyAxMzEsNTQgQzEzMSw1Ni43NjE2MDA3IDEzMy4yMzkwMDQsNTkgMTM2LjAwMDM4OSw1OSBDMTM4Ljc2MTc3NSw1OSAxNDEsNTYuNzYxNjAwNyAxNDEsNTQiIGlkPSJGaWxsLTE3LUNvcHktMTEiIGZpbGw9IiNGNzkzMUUiPjwvcGF0aD4KICAgICAgICAgICAgICAgIDxwYXRoIGQ9Ik0xNTcsNzUgQzE1Nyw3Mi4yMzgzOTkzIDE1NC43NjE3NzUsNzAgMTUyLjAwMDM4OSw3MCBDMTQ5LjIzOTAwNCw3MCAxNDcsNzIuMjM4Mzk5MyAxNDcsNzUgQzE0Nyw3Ny43NjE2MDA3IDE0OS4yMzkwMDQsODAgMTUyLjAwMDM4OSw4MCBDMTU0Ljc2MTc3NSw4MCAxNTcsNzcuNzYxNjAwNyAxNTcsNzUiIGlkPSJGaWxsLTE3LUNvcHktMTIiIGZpbGw9IiNGNzkzMUUiPjwvcGF0aD4KICAgICAgICAgICAgICAgIDxwYXRoIGQ9Ik0xMjAsNjYgQzEyMCw2My4yMzgzOTkzIDExNy43NjE3NzUsNjEgMTE1LjAwMDM4OSw2MSBDMTEyLjIzOTAwNCw2MSAxMTAsNjMuMjM4Mzk5MyAxMTAsNjYgQzExMCw2OC43NjE2MDA3IDExMi4yMzkwMDQsNzEgMTE1LjAwMDM4OSw3MSBDMTE3Ljc2MTc3NSw3MSAxMjAsNjguNzYxNjAwNyAxMjAsNjYiIGlkPSJGaWxsLTE3LUNvcHktMTMiIGZpbGw9IiNGNzkzMUUiPjwvcGF0aD4KICAgICAgICAgICAgICAgIDxwYXRoIGQ9Ik0xMzAsODggQzEzMCw4NS4yMzgzOTkzIDEyNy43NjE3NzUsODMgMTI1LjAwMDM4OSw4MyBDMTIyLjIzOTAwNCw4MyAxMjAsODUuMjM4Mzk5MyAxMjAsODggQzEyMCw5MC43NjE2MDA3IDEyMi4yMzkwMDQsOTMgMTI1LjAwMDM4OSw5MyBDMTI3Ljc2MTc3NSw5MyAxMzAsOTAuNzYxNjAwNyAxMzAsODgiIGlkPSJGaWxsLTE3LUNvcHktMTQiIGZpbGw9IiNGNzkzMUUiPjwvcGF0aD4KICAgICAgICAgICAgICAgIDxwYXRoIGQ9Ik0xNTEsMTEzIEMxNTEsMTEwLjIzODM5OSAxNDguNzYxNzc1LDEwOCAxNDYuMDAwMzg5LDEwOCBDMTQzLjIzOTAwNCwxMDggMTQxLDExMC4yMzgzOTkgMTQxLDExMyBDMTQxLDExNS43NjE2MDEgMTQzLjIzOTAwNCwxMTggMTQ2LjAwMDM4OSwxMTggQzE0OC43NjE3NzUsMTE4IDE1MSwxMTUuNzYxNjAxIDE1MSwxMTMiIGlkPSJGaWxsLTE3LUNvcHktMTUiIGZpbGw9IiNGNzkzMUUiPjwvcGF0aD4KICAgICAgICAgICAgPC9nPgogICAgICAgICAgICA8cGF0aCBkPSJNNzY5LC00LjU0NzQ3MzUxZS0xMyBDNzY0LDEzLjAxNTM0MjcgNzQ2LjgzMTExMiwxNDEuMDE1MzQzIDg4NS45MTU1NTYsMTMxLjAxNTM0MyIgaWQ9IlBhdGgtNDciIHN0cm9rZT0iIzYzNkY4MCIgc3Ryb2tlLXdpZHRoPSIyIj48L3BhdGg+CiAgICAgICAgICAgIDxwYXRoIGQ9Ik0xMDE0LDEyLjUxMjUxMDMgQzEwMjAsMjIuMDg4NTc4IDEwMjcuNzEyNjIsMzkuMDE1MzQyNyAxMDIyLjIxNjk3LDQzLjAxNTM0MjcgQzEwMTYuNzIxMzIsNDcuMDE1MzQyNyAxMDA5LjU0ODI5LDQ2LjUyNDA1MjggOTk4LjMxMTQzMyw0My43MzM1Njc4IEM5ODcuMDc0NTcyLDQwLjk0MzA4MjkgOTgxLDU2LjAxNTM0MjcgOTk0LjUwMzM2Miw2My4wMTUzNDI3IEMxMDA4LjAwNjcyLDcwLjAxNTM0MjcgMTAyMy4wNTY1OCw3MS4xMzc3NDYyIDEwMjguNTI4MjksNjcuMDc2NTQ0NSBDMTAzNCw2My4wMTUzNDI3IDEwMzEuNDYyNTIsNTMuNDc0MjU0OSAxMDM0Ljc3MzI1LDQ5LjQ3NDI1NDkgQzEwMzguMDgzOTgsNDUuNDc0MjU0OSAxMDQ2LjcxMDUzLDQ2LjAxNTM0MjcgMTA1NCw1Mi4wMTUzNDI3IEMxMDYxLjI4OTQ3LDU4LjAxNTM0MjcgMTA3Mi4xMzc4NSw3My4wODE5NzcxIDEwNzMuNDc1NzgsNzUuNDYxODMxMyBDMTA3NC44MTM3Miw3Ny44NDE2ODU1IDEwNzYsODIuMDE1MzQyNyAxMDczLDg1LjAxNTM0MjcgQzEwNzAsODguMDE1MzQyNyAxMDY0LDg2Ljk0MTIzNjkgMTA1Ni4zOTM1NCw4MS43Mzc4OTIzIEMxMDQ4Ljc4NzA5LDc2LjUzNDU0NzcgMTAzNS44NjA1Miw3NC4wMTUzNDI3IDEwMjksODkuMDE1MzQyNyBDMTAyMi4xMzk0OCwxMDQuMDE1MzQzIDEwMjMsMTE0LjAxNTM0MyAxMDI1LDExOS4wMTUzNDMgQzEwMjcsMTI0LjAxNTM0MyAxMDM3LjUsMTI3LjAxNTM0MyAxMDQ0LDExNy4wMTUzNDMgQzEwNTAuNSwxMDcuMDE1MzQzIDEwNTYuMTQ3NzYsMTExLjE3MTQ4NiAxMDU5LjU3Mzg4LDExMi41OTM0MTQgQzEwNjMsMTE0LjAxNTM0MyAxMDY1LjE3NDIzLDExMy42MDY1NDIgMTA3NC4zNjA1MiwxMDguMjM2OTI1IEMxMDgzLjU0NjgsMTAyLjg2NzMwNyAxMDg5Ljk2MjQ0LDExMS4xMDg2MjEgMTA5My45NDE2LDExNS42MDk4NDkgQzEwOTcuOTIwNzcsMTIwLjExMTA3NiAxMTE4LDE0NS42ODYzMzUgMTEzMi4zNzQ4MSwxNTAuOTYzMjc0IiBpZD0iUGF0aC00OCIgc3Ryb2tlPSIjNjM2RjgwIiBzdHJva2Utd2lkdGg9IjIiPjwvcGF0aD4KICAgICAgICAgICAgPHBhdGggZD0iTTEyNTcuMTUzNDEsMTIuNjEwNTY4NCBDMTI1OC4xNTY4NiwxNy42NzQ1NDY5IDEyNjEuNjI1MzYsMjQuMzA2ODc0MSAxMjY0LjUwODI1LDI4LjY2MTEwODQgQzEyNjcuMzkxMTQsMzMuMDE1MzQyNyAxMjcyLjI1MTI0LDM5LjI2OTc5MzkgMTI2Ni4zNjgyMyw0NC4xMTQ5OTI2IEMxMjYwLjQ4NTIyLDQ4Ljk2MDE5MTQgMTI1Miw0OC44MjY5MDYyIDEyNDcsNDcuMDE1MzQyNyBDMTI0Miw0NS4yMDM3NzkyIDEyMzUuODM3MDMsNDEuMDE1MzQyNyAxMjMwLjkxODUxLDQ3LjAxNTM0MjcgQzEyMjYsNTMuMDE1MzQyNyAxMjMxLjEzMjM1LDYwLjUxMTk2ODUgMTIzNSw2My41MTE0NTEyIEMxMjM4Ljg2NzY1LDY2LjUxMDkzMzggMTI0OC45MjY0Nyw3MS4zNzAyOTcgMTI1Ny4xNTM0MSw3MS4zNzAyOTcgQzEyNjUuMzgwMzUsNzEuMzcwMjk3IDEyNjcuOTc4MTgsNzEuODY2NzA3OSAxMjcyLjk3ODE4LDY1Ljg2NjcwNzkgQzEyNzcuOTc4MTgsNTkuODY2NzA3OSAxMjc5LjM2NTY5LDU2LjUxMzk3NDggMTI4MS4zMTE5OCw1Mi4wMTUzNDI3IEMxMjgzLjI1ODI3LDQ3LjUxNjcxMDUgMTI4Ny42MzU0LDQzLjY1MTk0OTUgMTI5My41MzkyNSw0OS41MzM3OTA5IEMxMjk5LjQ0MzExLDU1LjQxNTYzMjQgMTMwNC4yNDkwNSw2MS4wMTUzNDI3IDEzMDgsNjMuMDE1MzQyNyBDMTMxMS43NTA5NSw2NS4wMTUzNDI3IDEzMTcuNzYyNDYsNjYuNjkzODcxMSAxMzI0Ljc2MjQ2LDY0LjU2Nzg5ODggQzEzMzEuNzYyNDYsNjIuNDQxOTI2NSAxMzM5LjI2NjYsNTkuOTE1NjkyNyAxMzQxLDUyLjAxNTM0MjcgQzEzNDIuNzMzNCw0NC4xMTQ5OTI2IDEzNDEuMjIxNzMsMzUuOTIwNDI3NCAxMzQzLjExMDg2LDMzLjAxNTM0MjcgQzEzNDUsMzAuMTEwMjU4IDEzNTAsMjguMTU2MzM2NyAxMzU1LDMyLjAxNTM0MjcgQzEzNjAsMzUuODc0MzQ4NiAxMzYwLjMzMzczLDQxLjIzNTczOTYgMTM1OS4wODI1MSw0NC42MjI5MzcxIEMxMzU3LjgzMTI4LDQ4LjAxMDEzNDUgMTM1Mi42NzA4LDU1LjAxNTM0MjcgMTM0Ny42NzA4LDU4LjAxNTM0MjcgQzEzNDIuNjcwOCw2MS4wMTUzNDI3IDEzMzQsNjUuODY2NzA3OSAxMzI4LjM4MTAxLDY5LjA5MzQ2IEMxMzIyLjc2MjAzLDcyLjMyMDIxMjEgMTMxNy42NDQyNSw4Mi4wMTM0ODg5IDEzMTUuNDE4NjcsODUuMDE1MzQyNyBDMTMxMy4xOTMwOSw4OC4wMTcxOTY1IDEzMDkuMzMwMTIsOTQuMDE1MzQyNyAxMzAzLDg5LjAxNTM0MjcgQzEyOTYuNjY5ODgsODQuMDE1MzQyNyAxMjkwLjgyNzY2LDgwLjAxNTM0MjcgMTI4Ny4zMDM4NCw4MC4wMTUzNDI3IEMxMjgzLjc4MDAzLDgwLjAxNTM0MjcgMTI3OS45NDY5Miw4NC4wMTUzNDI3IDEyNzcsODguMDE1MzQyNyBDMTI3NC4wNTMwOCw5Mi4wMTUzNDI3IDEyNjguMDIwNTcsOTcuMTA2MTMzMSAxMjY2LDk4LjYzNDY2OTggQzEyNjMuOTc5NDMsMTAwLjE2MzIwNiAxMjYxLjkyMjIyLDEwMS4zMTEyMDkgMTI1Mi45MjIyMiwxMDAuMTYzMjA2IEMxMjQzLjkyMjIyLDk5LjAxNTIwNDQgMTIzNiwxMDEuMDgxMzI1IDEyMzAsMTA0LjQ5Nzc5OCBDMTIyNCwxMDcuOTE0MjcgMTIyMCwxMTYuMDE1MzQzIDEyMjQsMTIwLjAxNTM0MyBDMTIyOCwxMjQuMDE1MzQzIDEyMzMuMjM1MywxMjUuMDE1MzQzIDEyMzguODY3NjUsMTIwLjAxNTM0MyBDMTI0NC41LDExNS4wMTUzNDMgMTI0Ny40MzA4OCwxMDcuOTUxNDk3IDEyNTUuNDI5MDEsMTA3Ljk1MTQ5NyBDMTI2My40MjcxNSwxMDcuOTUxNDk3IDEyNjQuMjM5OTUsMTEyLjk4NTQ1NiAxMjY3Ljg3MTcyLDEyMS4wMzkzMTUgQzEyNzEuNTAzNDksMTI5LjA5MzE3NSAxMjc3LjE5NTM4LDEzMS41NzM3NDkgMTI4MiwxMjQuMDE1MzQzIEMxMjg2LjgwNDYyLDExNi40NTY5MzcgMTI4OC4zNTA3NCwxMTMuNjU0NjY1IDEyOTEuNDMzNzYsMTEyLjYxMTQwOCBDMTI5NC41MTY3OCwxMTEuNTY4MTUxIDEyOTcuNzQ0OTcsMTEyLjEwMTg1NyAxMzAxLjgzNjAxLDExMy4wNTg2IEMxMzA1LjkyNzA2LDExNC4wMTUzNDMgMTMxMS4zNzY3NywxMTQuNDA5NjYyIDEzMTUuNDE4NjcsMTExLjQwOTY2MiBDMTMxOS40NjA1NiwxMDguNDA5NjYyIDEzMjIsMTA1LjAxNTM0MyAxMzI5LDEwNi4wMTUzNDMgQzEzMzYsMTA3LjAxNTM0MyAxMzQwLjc1ODg2LDExNi44NDE5MzMgMTM0My4xMTA4NiwxMjEuNDY1NDQ1IEMxMzQ1LjQ2Mjg2LDEyNi4wODg5NTcgMTM1MS4yNTEyMiwxMzguMTU2NTYxIDEzNTUsMTQxLjI0MTczIEMxMzU4Ljc0ODc4LDE0NC4zMjY5IDEzNjYuNDA0ODQsMTQ3Ljc2NTMwNiAxMzcwLjExNjkxLDE0OC41ODc0NDUiIGlkPSJQYXRoLTQ5IiBzdHJva2U9IiM2MzZGODAiIHN0cm9rZS13aWR0aD0iMiI+PC9wYXRoPgogICAgICAgIDwvZz4KICAgICAgICA8ZyBpZD0iR3JvdXAtMiIgdHJhbnNmb3JtPSJ0cmFuc2xhdGUoOTcuMDAwMDAwLCAyMjAuOTg0NjU3KSIgZmlsbD0iIzMzMzMzMyIgZmlsbC1ydWxlPSJub256ZXJvIj4KICAgICAgICAgICAgPHBhdGggZD0iTTMuMDc2LDE2IEwzLjA3NiwxMS4wNzIgTDcuOTQsMTEuMDcyIEw3Ljk0LDE2IEw5LjI4NCwxNiBMOS4yODQsNS41MDQgTDcuOTQsNS41MDQgTDcuOTQsOS44ODggTDMuMDc2LDkuODg4IEwzLjA3Niw1LjUwNCBMMS43MzIsNS41MDQgTDEuNzMyLDE2IEwzLjA3NiwxNiBaIE0xNS4xNzIsMTYuMTkyIEMxNi4yNDQsMTYuMTkyIDE3LjA3NiwxNS44NzIgMTcuNzQ4LDE1LjM5MiBMMTcuMjg0LDE0LjU0NCBDMTYuNzQsMTQuOTEyIDE2LjA4NCwxNS4xMiAxNS4zMzIsMTUuMTIgQzEzLjg2LDE1LjEyIDEyLjg4NCwxNC4wNjQgMTIuNzcyLDEyLjQ2NCBMMTguMDA0LDEyLjQ2NCBDMTguMDUyLDEyLjIwOCAxOC4wNjgsMTEuOTY4IDE4LjA2OCwxMS42OCBDMTguMDY4LDkuNDQgMTYuOTMyLDguMDMyIDE0Ljk0OCw4LjAzMiBDMTMuMTcyLDguMDMyIDExLjQ2LDkuNTg0IDExLjQ2LDEyLjExMiBDMTEuNDYsMTQuNjg4IDEzLjA5MiwxNi4xOTIgMTUuMTcyLDE2LjE5MiBaIE0xNi44ODQsMTEuNDQgTDEyLjc3MiwxMS40NCBDMTIuOTMyLDkuOTUyIDEzLjg5Miw5LjA4OCAxNC45OCw5LjA4OCBDMTYuMTY0LDkuMDg4IDE2Ljg4NCw5LjkwNCAxNi44ODQsMTEuNDQgWiBNMjAuMjQ0LDE4Ljc1MiBMMjAuMjQ0LDE2IEwyNS41NTYsMTYgTDI1LjU1NiwxOC43NTIgTDI2LjY5MiwxOC43NTIgTDI2LjgzNiwxNS43NiBMMjYuODM2LDE0LjkxMiBMMjUuNywxNC45MTIgTDI1LjcsOC4yMjQgTDIwLjg1Miw4LjIyNCBMMjAuNDM2LDExLjY2NCBDMjAuMTMyLDE0LjE2IDE5Ljc4LDE0LjY4OCAxOS4zNDgsMTQuOTEyIEwxOC45NjQsMTQuOTEyIEwxOC45NjQsMTUuNzYgTDE5LjEwOCwxOC43NTIgTDIwLjI0NCwxOC43NTIgWiBNMjQuMzcyLDE0LjkxMiBMMjAuNzcyLDE0LjkxMiBDMjEuMTI0LDE0LjM1MiAyMS40MjgsMTMuNDQgMjEuNjA0LDExLjkyIEwyMS45MDgsOS4yOTYgTDI0LjM3Miw5LjI5NiBMMjQuMzcyLDE0LjkxMiBaIE0zMS41MjQsMTYuMTkyIEMzMy40MjgsMTYuMTkyIDM1LjE0LDE0LjcwNCAzNS4xNCwxMi4xMjggQzM1LjE0LDkuNTIgMzMuNDI4LDguMDMyIDMxLjUyNCw4LjAzMiBDMjkuNjIsOC4wMzIgMjcuOTI0LDkuNTIgMjcuOTI0LDEyLjEyOCBDMjcuOTI0LDE0LjcwNCAyOS42MiwxNi4xOTIgMzEuNTI0LDE2LjE5MiBaIE0zMS41MjQsMTUuMDg4IEMzMC4xOTYsMTUuMDg4IDI5LjMsMTMuOTA0IDI5LjMsMTIuMTI4IEMyOS4zLDEwLjMzNiAzMC4xOTYsOS4xMzYgMzEuNTI0LDkuMTM2IEMzMi44NjgsOS4xMzYgMzMuNzY0LDEwLjMzNiAzMy43NjQsMTIuMTI4IEMzMy43NjQsMTMuOTA0IDMyLjg2OCwxNS4wODggMzEuNTI0LDE1LjA4OCBaIE00MC4xOTYsMTYuMTkyIEM0Mi4xLDE2LjE5MiA0My44MTIsMTQuNzA0IDQzLjgxMiwxMi4xMjggQzQzLjgxMiw5LjUyIDQyLjEsOC4wMzIgNDAuMTk2LDguMDMyIEMzOC4yOTIsOC4wMzIgMzYuNTk2LDkuNTIgMzYuNTk2LDEyLjEyOCBDMzYuNTk2LDE0LjcwNCAzOC4yOTIsMTYuMTkyIDQwLjE5NiwxNi4xOTIgWiBNNDAuMTk2LDE1LjA4OCBDMzguODY4LDE1LjA4OCAzNy45NzIsMTMuOTA0IDM3Ljk3MiwxMi4xMjggQzM3Ljk3MiwxMC4zMzYgMzguODY4LDkuMTM2IDQwLjE5Niw5LjEzNiBDNDEuNTQsOS4xMzYgNDIuNDM2LDEwLjMzNiA0Mi40MzYsMTIuMTI4IEM0Mi40MzYsMTMuOTA0IDQxLjU0LDE1LjA4OCA0MC4xOTYsMTUuMDg4IFogTTQ5LjA0NCwxNi4xOTIgQzUwLjk0OCwxNi4xOTIgNTIuNDY4LDE0LjYyNCA1Mi40NjgsMTIuMTQ0IEM1Mi40NjgsOS44NzIgNTEuMTg4LDguNTEyIDQ5LjM0OCw4LjUxMiBDNDguMzcyLDguNTEyIDQ3LjQxMiw4Ljk2IDQ2LjcyNCw5LjgwOCBDNDYuOTY0LDYuNjA4IDQ4LjAzNiw2LjQgNTAuNTMyLDYuMDMyIEM1MS4xODgsNS45MzYgNTEuNzMyLDUuNzkyIDUyLjE0OCw1LjUyIEw1MS44NzYsNC4zMiBDNTEuMzk2LDQuNTQ0IDUxLjEyNCw0LjYyNCA1MC4yNiw0Ljc1MiBDNDcuMyw1LjIgNDUuMzgsNi4wMzIgNDUuMzgsMTEuMjggQzQ1LjM4LDE0LjQxNiA0Ni43MjQsMTYuMTkyIDQ5LjA0NCwxNi4xOTIgWiBNNDkuMDQ0LDE1LjA4OCBDNDcuNDYsMTUuMDg4IDQ2LjY2LDEzLjc3NiA0Ni42NiwxMS41MzYgTDQ2LjY2LDEwLjkyOCBMNDYuNjYsMTAuOTI4IEM0Ny40NDQsOS44NzIgNDguMjYsOS41MzYgNDkuMDEyLDkuNTM2IEM1MC4zNTYsOS41MzYgNTEuMDkyLDEwLjU0NCA1MS4wOTIsMTIuMTQ0IEM1MS4wOTIsMTMuOTA0IDUwLjI0NCwxNS4wODggNDkuMDQ0LDE1LjA4OCBaIE01NC41OCwxOS4zNDQgQzU2LjEzMiwxOS4zNDQgNTYuOTQ4LDE4LjE3NiA1Ny40OTIsMTYuNjQgTDYwLjQyLDguMjI0IEw1OS4xMjQsOC4yMjQgTDU3LjczMiwxMi41MTIgQzU3LjUyNCwxMy4yIDU3LjMsMTQgNTcuMDkyLDE0LjcwNCBMNTcuMDI4LDE0LjcwNCBDNTYuNzcyLDEzLjk4NCA1Ni41MTYsMTMuMTg0IDU2LjI2LDEyLjUxMiBMNTQuNjkyLDguMjI0IEw1My4zMTYsOC4yMjQgTDU2LjQzNiwxNi4wMTYgTDU2LjI2LDE2LjU5MiBDNTUuOTQsMTcuNTUyIDU1LjM4LDE4LjI0IDU0LjUxNiwxOC4yNCBDNTQuMzI0LDE4LjI0IDU0LjEzMiwxOC4yMDggNTMuOTQsMTguMTQ0IEw1My42NTIsMTkuMTg0IEM1My45MDgsMTkuMjggNTQuMjEyLDE5LjM0NCA1NC41OCwxOS4zNDQgWiBNNjcuNTA4LDE2IEw2Ny41MDgsOC4yMjQgTDY2LjE4LDguMjI0IEw2Ni4xOCwxMS44NCBDNjUuNzMyLDExLjkzNiA2NS4zOCwxMS45ODQgNjQuOTE2LDExLjk4NCBDNjMuNTA4LDExLjk4NCA2Mi44ODQsMTEuNTA0IDYyLjg4NCwxMC4zNTIgTDYyLjg4NCw4LjIyNCBMNjEuNTU2LDguMjI0IEw2MS41NTYsMTAuMzUyIEM2MS41NTYsMTIuMjg4IDYyLjY5MiwxMy4wNzIgNjQuNjYsMTMuMDcyIEM2NS4zNDgsMTMuMDcyIDY1LjYzNiwxMy4wMDggNjYuMTgsMTIuOTEyIEw2Ni4xOCwxNiBMNjcuNTA4LDE2IFogTTczLjI2OCwxNi4xOTIgQzc0LjM0LDE2LjE5MiA3NS4xNzIsMTUuODcyIDc1Ljg0NCwxNS4zOTIgTDc1LjM4LDE0LjU0NCBDNzQuODM2LDE0LjkxMiA3NC4xOCwxNS4xMiA3My40MjgsMTUuMTIgQzcxLjk1NiwxNS4xMiA3MC45OCwxNC4wNjQgNzAuODY4LDEyLjQ2NCBMNzYuMSwxMi40NjQgQzc2LjE0OCwxMi4yMDggNzYuMTY0LDExLjk2OCA3Ni4xNjQsMTEuNjggQzc2LjE2NCw5LjQ0IDc1LjAyOCw4LjAzMiA3My4wNDQsOC4wMzIgQzcxLjI2OCw4LjAzMiA2OS41NTYsOS41ODQgNjkuNTU2LDEyLjExMiBDNjkuNTU2LDE0LjY4OCA3MS4xODgsMTYuMTkyIDczLjI2OCwxNi4xOTIgWiBNNzQuOTgsMTEuNDQgTDcwLjg2OCwxMS40NCBDNzEuMDI4LDkuOTUyIDcxLjk4OCw5LjA4OCA3My4wNzYsOS4wODggQzc0LjI2LDkuMDg4IDc0Ljk4LDkuOTA0IDc0Ljk4LDExLjQ0IFogTTc5LjM5NiwxNiBMNzkuMzk2LDEyLjU0NCBMODMuMTI0LDEyLjU0NCBMODMuMTI0LDE2IEw4NC40NTIsMTYgTDg0LjQ1Miw4LjIyNCBMODMuMTI0LDguMjI0IEw4My4xMjQsMTEuMzc2IEw3OS4zOTYsMTEuMzc2IEw3OS4zOTYsOC4yMjQgTDc4LjA2OCw4LjIyNCBMNzguMDY4LDE2IEw3OS4zOTYsMTYgWiBNODguNDg0LDE2IEw5MS4yNTIsMTEuNjE2IEM5MS41NTYsMTEuMTM2IDkxLjk1NiwxMC40MzIgOTIuMjYsOS44NCBMOTIuMzI0LDkuODQgQzkyLjI0NCwxMC45NiA5Mi4xOTYsMTEuOTIgOTIuMTk2LDEyLjc1MiBMOTIuMTk2LDE2IEw5My40NiwxNiBMOTMuNDYsOC4yMjQgTDkyLjA1Miw4LjIyNCBMODkuMjY4LDEyLjYyNCBDODguOTY0LDEzLjEwNCA4OC41NjQsMTMuODI0IDg4LjI2LDE0LjM4NCBMODguMTk2LDE0LjM4NCBDODguMjc2LDEzLjI4IDg4LjM0LDEyLjMwNCA4OC4zNCwxMS40NzIgTDg4LjM0LDguMjI0IEw4Ny4wNiw4LjIyNCBMODcuMDYsMTYgTDg4LjQ4NCwxNiBaIE05OS4yMiwxNi4xOTIgQzEwMC4yOTIsMTYuMTkyIDEwMS4xMjQsMTUuODcyIDEwMS43OTYsMTUuMzkyIEwxMDEuMzMyLDE0LjU0NCBDMTAwLjc4OCwxNC45MTIgMTAwLjEzMiwxNS4xMiA5OS4zOCwxNS4xMiBDOTcuOTA4LDE1LjEyIDk2LjkzMiwxNC4wNjQgOTYuODIsMTIuNDY0IEwxMDIuMDUyLDEyLjQ2NCBDMTAyLjEsMTIuMjA4IDEwMi4xMTYsMTEuOTY4IDEwMi4xMTYsMTEuNjggQzEwMi4xMTYsOS40NCAxMDAuOTgsOC4wMzIgOTguOTk2LDguMDMyIEM5Ny4yMiw4LjAzMiA5NS41MDgsOS41ODQgOTUuNTA4LDEyLjExMiBDOTUuNTA4LDE0LjY4OCA5Ny4xNCwxNi4xOTIgOTkuMjIsMTYuMTkyIFogTTEwMC45MzIsMTEuNDQgTDk2LjgyLDExLjQ0IEM5Ni45OCw5Ljk1MiA5Ny45NCw5LjA4OCA5OS4wMjgsOS4wODggQzEwMC4yMTIsOS4wODggMTAwLjkzMiw5LjkwNCAxMDAuOTMyLDExLjQ0IFoiIGlkPSLQndC10LTQvtC+0LHRg9GH0LXQvdC40LUiPjwvcGF0aD4KICAgICAgICAgICAgPHBhdGggZD0iTTQ5OS4zMjQsMTYgTDQ5OS4zMjQsNi42NCBMNTA0LjA3Niw2LjY0IEw1MDQuMDc2LDE2IEw1MDUuNDIsMTYgTDUwNS40Miw1LjUwNCBMNDk3Ljk4LDUuNTA0IEw0OTcuOTgsMTYgTDQ5OS4zMjQsMTYgWiBNNTExLjMwOCwxNi4xOTIgQzUxMi4zOCwxNi4xOTIgNTEzLjIxMiwxNS44NzIgNTEzLjg4NCwxNS4zOTIgTDUxMy40MiwxNC41NDQgQzUxMi44NzYsMTQuOTEyIDUxMi4yMiwxNS4xMiA1MTEuNDY4LDE1LjEyIEM1MDkuOTk2LDE1LjEyIDUwOS4wMiwxNC4wNjQgNTA4LjkwOCwxMi40NjQgTDUxNC4xNCwxMi40NjQgQzUxNC4xODgsMTIuMjA4IDUxNC4yMDQsMTEuOTY4IDUxNC4yMDQsMTEuNjggQzUxNC4yMDQsOS40NCA1MTMuMDY4LDguMDMyIDUxMS4wODQsOC4wMzIgQzUwOS4zMDgsOC4wMzIgNTA3LjU5Niw5LjU4NCA1MDcuNTk2LDEyLjExMiBDNTA3LjU5NiwxNC42ODggNTA5LjIyOCwxNi4xOTIgNTExLjMwOCwxNi4xOTIgWiBNNTEzLjAyLDExLjQ0IEw1MDguOTA4LDExLjQ0IEM1MDkuMDY4LDkuOTUyIDUxMC4wMjgsOS4wODggNTExLjExNiw5LjA4OCBDNTEyLjMsOS4wODggNTEzLjAyLDkuOTA0IDUxMy4wMiwxMS40NCBaIE01MTcuNDM2LDE5LjI4IEw1MTcuNDM2LDE2LjY1NiBMNTE3LjQwNCwxNS4yOTYgQzUxOC4xMDgsMTUuODU2IDUxOC44NDQsMTYuMTkyIDUxOS41NDgsMTYuMTkyIEM1MjEuMzI0LDE2LjE5MiA1MjIuOTI0LDE0LjY0IDUyMi45MjQsMTIgQzUyMi45MjQsOS41ODQgNTIxLjgzNiw4LjAzMiA1MTkuODM2LDguMDMyIEM1MTguOTQsOC4wMzIgNTE4LjA2LDguNTI4IDUxNy4zNTYsOS4xMiBMNTE3LjMwOCw5LjEyIEw1MTcuMTk2LDguMjI0IEw1MTYuMTA4LDguMjI0IEw1MTYuMTA4LDE5LjI4IEw1MTcuNDM2LDE5LjI4IFogTTUxOS4zMjQsMTUuMDcyIEM1MTguODEyLDE1LjA3MiA1MTguMTQsMTQuODY0IDUxNy40MzYsMTQuMjcyIEw1MTcuNDM2LDEwLjIwOCBDNTE4LjE4OCw5LjUwNCA1MTguODQ0LDkuMTUyIDUxOS41LDkuMTUyIEM1MjAuOTU2LDkuMTUyIDUyMS41NDgsMTAuMjg4IDUyMS41NDgsMTIgQzUyMS41NDgsMTMuOTIgNTIwLjYwNCwxNS4wNzIgNTE5LjMyNCwxNS4wNzIgWiBNNTI4LjEyNCwxNi4xOTIgQzUyOS4xOTYsMTYuMTkyIDUzMC4wMjgsMTUuODcyIDUzMC43LDE1LjM5MiBMNTMwLjIzNiwxNC41NDQgQzUyOS42OTIsMTQuOTEyIDUyOS4wMzYsMTUuMTIgNTI4LjI4NCwxNS4xMiBDNTI2LjgxMiwxNS4xMiA1MjUuODM2LDE0LjA2NCA1MjUuNzI0LDEyLjQ2NCBMNTMwLjk1NiwxMi40NjQgQzUzMS4wMDQsMTIuMjA4IDUzMS4wMiwxMS45NjggNTMxLjAyLDExLjY4IEM1MzEuMDIsOS40NCA1MjkuODg0LDguMDMyIDUyNy45LDguMDMyIEM1MjYuMTI0LDguMDMyIDUyNC40MTIsOS41ODQgNTI0LjQxMiwxMi4xMTIgQzUyNC40MTIsMTQuNjg4IDUyNi4wNDQsMTYuMTkyIDUyOC4xMjQsMTYuMTkyIFogTTUyOS44MzYsMTEuNDQgTDUyNS43MjQsMTEuNDQgQzUyNS44ODQsOS45NTIgNTI2Ljg0NCw5LjA4OCA1MjcuOTMyLDkuMDg4IEM1MjkuMTE2LDkuMDg4IDUyOS44MzYsOS45MDQgNTI5LjgzNiwxMS40NCBaIE01MzUuOTQ4LDE2LjE5MiBDNTM3Ljg1MiwxNi4xOTIgNTM5LjU2NCwxNC43MDQgNTM5LjU2NCwxMi4xMjggQzUzOS41NjQsOS41MiA1MzcuODUyLDguMDMyIDUzNS45NDgsOC4wMzIgQzUzNC4wNDQsOC4wMzIgNTMyLjM0OCw5LjUyIDUzMi4zNDgsMTIuMTI4IEM1MzIuMzQ4LDE0LjcwNCA1MzQuMDQ0LDE2LjE5MiA1MzUuOTQ4LDE2LjE5MiBaIE01MzUuOTQ4LDE1LjA4OCBDNTM0LjYyLDE1LjA4OCA1MzMuNzI0LDEzLjkwNCA1MzMuNzI0LDEyLjEyOCBDNTMzLjcyNCwxMC4zMzYgNTM0LjYyLDkuMTM2IDUzNS45NDgsOS4xMzYgQzUzNy4yOTIsOS4xMzYgNTM4LjE4OCwxMC4zMzYgNTM4LjE4OCwxMi4xMjggQzUzOC4xODgsMTMuOTA0IDUzNy4yOTIsMTUuMDg4IDUzNS45NDgsMTUuMDg4IFogTTU0NC43OTYsMTYuMTkyIEM1NDYuNywxNi4xOTIgNTQ4LjIyLDE0LjYyNCA1NDguMjIsMTIuMTQ0IEM1NDguMjIsOS44NzIgNTQ2Ljk0LDguNTEyIDU0NS4xLDguNTEyIEM1NDQuMTI0LDguNTEyIDU0My4xNjQsOC45NiA1NDIuNDc2LDkuODA4IEM1NDIuNzE2LDYuNjA4IDU0My43ODgsNi40IDU0Ni4yODQsNi4wMzIgQzU0Ni45NCw1LjkzNiA1NDcuNDg0LDUuNzkyIDU0Ny45LDUuNTIgTDU0Ny42MjgsNC4zMiBDNTQ3LjE0OCw0LjU0NCA1NDYuODc2LDQuNjI0IDU0Ni4wMTIsNC43NTIgQzU0My4wNTIsNS4yIDU0MS4xMzIsNi4wMzIgNTQxLjEzMiwxMS4yOCBDNTQxLjEzMiwxNC40MTYgNTQyLjQ3NiwxNi4xOTIgNTQ0Ljc5NiwxNi4xOTIgWiBNNTQ0Ljc5NiwxNS4wODggQzU0My4yMTIsMTUuMDg4IDU0Mi40MTIsMTMuNzc2IDU0Mi40MTIsMTEuNTM2IEw1NDIuNDEyLDEwLjkyOCBMNTQyLjQxMiwxMC45MjggQzU0My4xOTYsOS44NzIgNTQ0LjAxMiw5LjUzNiA1NDQuNzY0LDkuNTM2IEM1NDYuMTA4LDkuNTM2IDU0Ni44NDQsMTAuNTQ0IDU0Ni44NDQsMTIuMTQ0IEM1NDYuODQ0LDEzLjkwNCA1NDUuOTk2LDE1LjA4OCA1NDQuNzk2LDE1LjA4OCBaIE01NTAuMzMyLDE5LjM0NCBDNTUxLjg4NCwxOS4zNDQgNTUyLjcsMTguMTc2IDU1My4yNDQsMTYuNjQgTDU1Ni4xNzIsOC4yMjQgTDU1NC44NzYsOC4yMjQgTDU1My40ODQsMTIuNTEyIEM1NTMuMjc2LDEzLjIgNTUzLjA1MiwxNCA1NTIuODQ0LDE0LjcwNCBMNTUyLjc4LDE0LjcwNCBDNTUyLjUyNCwxMy45ODQgNTUyLjI2OCwxMy4xODQgNTUyLjAxMiwxMi41MTIgTDU1MC40NDQsOC4yMjQgTDU0OS4wNjgsOC4yMjQgTDU1Mi4xODgsMTYuMDE2IEw1NTIuMDEyLDE2LjU5MiBDNTUxLjY5MiwxNy41NTIgNTUxLjEzMiwxOC4yNCA1NTAuMjY4LDE4LjI0IEM1NTAuMDc2LDE4LjI0IDU0OS44ODQsMTguMjA4IDU0OS42OTIsMTguMTQ0IEw1NDkuNDA0LDE5LjE4NCBDNTQ5LjY2LDE5LjI4IDU0OS45NjQsMTkuMzQ0IDU1MC4zMzIsMTkuMzQ0IFogTTU2My4yNiwxNiBMNTYzLjI2LDguMjI0IEw1NjEuOTMyLDguMjI0IEw1NjEuOTMyLDExLjg0IEM1NjEuNDg0LDExLjkzNiA1NjEuMTMyLDExLjk4NCA1NjAuNjY4LDExLjk4NCBDNTU5LjI2LDExLjk4NCA1NTguNjM2LDExLjUwNCA1NTguNjM2LDEwLjM1MiBMNTU4LjYzNiw4LjIyNCBMNTU3LjMwOCw4LjIyNCBMNTU3LjMwOCwxMC4zNTIgQzU1Ny4zMDgsMTIuMjg4IDU1OC40NDQsMTMuMDcyIDU2MC40MTIsMTMuMDcyIEM1NjEuMSwxMy4wNzIgNTYxLjM4OCwxMy4wMDggNTYxLjkzMiwxMi45MTIgTDU2MS45MzIsMTYgTDU2My4yNiwxNiBaIE01NjkuMDIsMTYuMTkyIEM1NzAuMDkyLDE2LjE5MiA1NzAuOTI0LDE1Ljg3MiA1NzEuNTk2LDE1LjM5MiBMNTcxLjEzMiwxNC41NDQgQzU3MC41ODgsMTQuOTEyIDU2OS45MzIsMTUuMTIgNTY5LjE4LDE1LjEyIEM1NjcuNzA4LDE1LjEyIDU2Ni43MzIsMTQuMDY0IDU2Ni42MiwxMi40NjQgTDU3MS44NTIsMTIuNDY0IEM1NzEuOSwxMi4yMDggNTcxLjkxNiwxMS45NjggNTcxLjkxNiwxMS42OCBDNTcxLjkxNiw5LjQ0IDU3MC43OCw4LjAzMiA1NjguNzk2LDguMDMyIEM1NjcuMDIsOC4wMzIgNTY1LjMwOCw5LjU4NCA1NjUuMzA4LDEyLjExMiBDNTY1LjMwOCwxNC42ODggNTY2Ljk0LDE2LjE5MiA1NjkuMDIsMTYuMTkyIFogTTU3MC43MzIsMTEuNDQgTDU2Ni42MiwxMS40NCBDNTY2Ljc4LDkuOTUyIDU2Ny43NCw5LjA4OCA1NjguODI4LDkuMDg4IEM1NzAuMDEyLDkuMDg4IDU3MC43MzIsOS45MDQgNTcwLjczMiwxMS40NCBaIE01NzUuMTQ4LDE2IEw1NzUuMTQ4LDEyLjU0NCBMNTc4Ljg3NiwxMi41NDQgTDU3OC44NzYsMTYgTDU4MC4yMDQsMTYgTDU4MC4yMDQsOC4yMjQgTDU3OC44NzYsOC4yMjQgTDU3OC44NzYsMTEuMzc2IEw1NzUuMTQ4LDExLjM3NiBMNTc1LjE0OCw4LjIyNCBMNTczLjgyLDguMjI0IEw1NzMuODIsMTYgTDU3NS4xNDgsMTYgWiBNNTg0LjIzNiwxNiBMNTg3LjAwNCwxMS42MTYgQzU4Ny4zMDgsMTEuMTM2IDU4Ny43MDgsMTAuNDMyIDU4OC4wMTIsOS44NCBMNTg4LjA3Niw5Ljg0IEM1ODcuOTk2LDEwLjk2IDU4Ny45NDgsMTEuOTIgNTg3Ljk0OCwxMi43NTIgTDU4Ny45NDgsMTYgTDU4OS4yMTIsMTYgTDU4OS4yMTIsOC4yMjQgTDU4Ny44MDQsOC4yMjQgTDU4NS4wMiwxMi42MjQgQzU4NC43MTYsMTMuMTA0IDU4NC4zMTYsMTMuODI0IDU4NC4wMTIsMTQuMzg0IEw1ODMuOTQ4LDE0LjM4NCBDNTg0LjAyOCwxMy4yOCA1ODQuMDkyLDEyLjMwNCA1ODQuMDkyLDExLjQ3MiBMNTg0LjA5Miw4LjIyNCBMNTgyLjgxMiw4LjIyNCBMNTgyLjgxMiwxNiBMNTg0LjIzNiwxNiBaIE01OTQuOTcyLDE2LjE5MiBDNTk2LjA0NCwxNi4xOTIgNTk2Ljg3NiwxNS44NzIgNTk3LjU0OCwxNS4zOTIgTDU5Ny4wODQsMTQuNTQ0IEM1OTYuNTQsMTQuOTEyIDU5NS44ODQsMTUuMTIgNTk1LjEzMiwxNS4xMiBDNTkzLjY2LDE1LjEyIDU5Mi42ODQsMTQuMDY0IDU5Mi41NzIsMTIuNDY0IEw1OTcuODA0LDEyLjQ2NCBDNTk3Ljg1MiwxMi4yMDggNTk3Ljg2OCwxMS45NjggNTk3Ljg2OCwxMS42OCBDNTk3Ljg2OCw5LjQ0IDU5Ni43MzIsOC4wMzIgNTk0Ljc0OCw4LjAzMiBDNTkyLjk3Miw4LjAzMiA1OTEuMjYsOS41ODQgNTkxLjI2LDEyLjExMiBDNTkxLjI2LDE0LjY4OCA1OTIuODkyLDE2LjE5MiA1OTQuOTcyLDE2LjE5MiBaIE01OTYuNjg0LDExLjQ0IEw1OTIuNTcyLDExLjQ0IEM1OTIuNzMyLDkuOTUyIDU5My42OTIsOS4wODggNTk0Ljc4LDkuMDg4IEM1OTUuOTY0LDkuMDg4IDU5Ni42ODQsOS45MDQgNTk2LjY4NCwxMS40NCBaIiBpZD0i0J/QtdGA0LXQvtCx0YPRh9C10L3QuNC1Ij48L3BhdGg+CiAgICAgICAgICAgIDxwYXRoIGQ9Ik0yNzYuMDEyLDE2LjE5MiBDMjc4LjY1MiwxNi4xOTIgMjgwLjUwOCwxNC4wOCAyODAuNTA4LDEwLjcwNCBDMjgwLjUwOCw3LjM2IDI3OC42NTIsNS4zMTIgMjc2LjAxMiw1LjMxMiBDMjczLjM3Miw1LjMxMiAyNzEuNTMyLDcuMzQ0IDI3MS41MzIsMTAuNzA0IEMyNzEuNTMyLDE0LjA4IDI3My4zNzIsMTYuMTkyIDI3Ni4wMTIsMTYuMTkyIFogTTI3Ni4wMTIsMTUuMDA4IEMyNzQuMTQsMTUuMDA4IDI3Mi45MjQsMTMuMzI4IDI3Mi45MjQsMTAuNzA0IEMyNzIuOTI0LDguMDk2IDI3NC4xNCw2LjQ5NiAyNzYuMDEyLDYuNDk2IEMyNzcuODg0LDYuNDk2IDI3OS4xMTYsOC4wOTYgMjc5LjExNiwxMC43MDQgQzI3OS4xMTYsMTMuMzI4IDI3Ny44ODQsMTUuMDA4IDI3Ni4wMTIsMTUuMDA4IFogTTI4My45NjQsMTYgTDI4My45NjQsOS4yOTYgTDI4Ny41MzIsOS4yOTYgTDI4Ny41MzIsMTYgTDI4OC44NiwxNiBMMjg4Ljg2LDguMjI0IEwyODIuNjM2LDguMjI0IEwyODIuNjM2LDE2IEwyODMuOTY0LDE2IFogTTI5NC41MjQsMTYgTDI5NC41MjQsOS4yOTYgTDI5Ny4xMTYsOS4yOTYgTDI5Ny4xMTYsOC4yMjQgTDI5MC41ODgsOC4yMjQgTDI5MC41ODgsOS4yOTYgTDI5My4xOTYsOS4yOTYgTDI5My4xOTYsMTYgTDI5NC41MjQsMTYgWiBNMzAwLjI2OCwxNiBMMzAzLjAzNiwxMS42MTYgQzMwMy4zNCwxMS4xMzYgMzAzLjc0LDEwLjQzMiAzMDQuMDQ0LDkuODQgTDMwNC4xMDgsOS44NCBDMzA0LjAyOCwxMC45NiAzMDMuOTgsMTEuOTIgMzAzLjk4LDEyLjc1MiBMMzAzLjk4LDE2IEwzMDUuMjQ0LDE2IEwzMDUuMjQ0LDguMjI0IEwzMDMuODM2LDguMjI0IEwzMDEuMDUyLDEyLjYyNCBDMzAwLjc0OCwxMy4xMDQgMzAwLjM0OCwxMy44MjQgMzAwLjA0NCwxNC4zODQgTDI5OS45OCwxNC4zODQgQzMwMC4wNiwxMy4yOCAzMDAuMTI0LDEyLjMwNCAzMDAuMTI0LDExLjQ3MiBMMzAwLjEyNCw4LjIyNCBMMjk4Ljg0NCw4LjIyNCBMMjk4Ljg0NCwxNiBMMzAwLjI2OCwxNiBaIE0zMDkuMDUyLDE2IEwzMDkuMDUyLDEyLjQ4IEMzMDkuMDUyLDExLjc5MiAzMDguOTg4LDEwLjYwOCAzMDguOTA4LDkuNzkyIEwzMDguOTcyLDkuNzkyIEMzMDkuMTk2LDEwLjQzMiAzMDkuNDUyLDExLjEwNCAzMDkuNjc2LDExLjcxMiBMMzExLjEzMiwxNS4yNjQgTDMxMi4xMjQsMTUuMjY0IEwzMTMuNTY0LDExLjcxMiBDMzEzLjc4OCwxMS4xMDQgMzE0LjAyOCwxMC40MzIgMzE0LjI1Miw5Ljc5MiBMMzE0LjMxNiw5Ljc5MiBDMzE0LjI1MiwxMC42MDggMzE0LjE3MiwxMS43OTIgMzE0LjE3MiwxMi40OCBMMzE0LjE3MiwxNiBMMzE1LjM3MiwxNiBMMzE1LjM3Miw4LjIyNCBMMzEzLjc4OCw4LjIyNCBMMzEyLjMzMiwxMS44NTYgQzMxMi4xMjQsMTIuNDMyIDMxMS45LDEzLjA3MiAzMTEuNjc2LDEzLjc3NiBMMzExLjYxMiwxMy43NzYgQzMxMS40MiwxMy4wNzIgMzExLjE4LDEyLjQzMiAzMTAuOTU2LDExLjg1NiBMMzA5LjQzNiw4LjIyNCBMMzA3Ljg2OCw4LjIyNCBMMzA3Ljg2OCwxNiBMMzA5LjA1MiwxNiBaIE0zMTguMTQsMTkuMzQ0IEMzMTkuNjkyLDE5LjM0NCAzMjAuNTA4LDE4LjE3NiAzMjEuMDUyLDE2LjY0IEwzMjMuOTgsOC4yMjQgTDMyMi42ODQsOC4yMjQgTDMyMS4yOTIsMTIuNTEyIEMzMjEuMDg0LDEzLjIgMzIwLjg2LDE0IDMyMC42NTIsMTQuNzA0IEwzMjAuNTg4LDE0LjcwNCBDMzIwLjMzMiwxMy45ODQgMzIwLjA3NiwxMy4xODQgMzE5LjgyLDEyLjUxMiBMMzE4LjI1Miw4LjIyNCBMMzE2Ljg3Niw4LjIyNCBMMzE5Ljk5NiwxNi4wMTYgTDMxOS44MiwxNi41OTIgQzMxOS41LDE3LjU1MiAzMTguOTQsMTguMjQgMzE4LjA3NiwxOC4yNCBDMzE3Ljg4NCwxOC4yNCAzMTcuNjkyLDE4LjIwOCAzMTcuNSwxOC4xNDQgTDMxNy4yMTIsMTkuMTg0IEMzMTcuNDY4LDE5LjI4IDMxNy43NzIsMTkuMzQ0IDMxOC4xNCwxOS4zNDQgWiBNMzI2LjY2OCwxNiBMMzI2LjY2OCwxMi40OCBDMzI2LjY2OCwxMS43OTIgMzI2LjYwNCwxMC42MDggMzI2LjUyNCw5Ljc5MiBMMzI2LjU4OCw5Ljc5MiBDMzI2LjgxMiwxMC40MzIgMzI3LjA2OCwxMS4xMDQgMzI3LjI5MiwxMS43MTIgTDMyOC43NDgsMTUuMjY0IEwzMjkuNzQsMTUuMjY0IEwzMzEuMTgsMTEuNzEyIEMzMzEuNDA0LDExLjEwNCAzMzEuNjQ0LDEwLjQzMiAzMzEuODY4LDkuNzkyIEwzMzEuOTMyLDkuNzkyIEMzMzEuODY4LDEwLjYwOCAzMzEuNzg4LDExLjc5MiAzMzEuNzg4LDEyLjQ4IEwzMzEuNzg4LDE2IEwzMzIuOTg4LDE2IEwzMzIuOTg4LDguMjI0IEwzMzEuNDA0LDguMjI0IEwzMjkuOTQ4LDExLjg1NiBDMzI5Ljc0LDEyLjQzMiAzMjkuNTE2LDEzLjA3MiAzMjkuMjkyLDEzLjc3NiBMMzI5LjIyOCwxMy43NzYgQzMyOS4wMzYsMTMuMDcyIDMyOC43OTYsMTIuNDMyIDMyOC41NzIsMTEuODU2IEwzMjcuMDUyLDguMjI0IEwzMjUuNDg0LDguMjI0IEwzMjUuNDg0LDE2IEwzMjYuNjY4LDE2IFoiIGlkPSLQntC/0YLQuNC80YPQvCI+PC9wYXRoPgogICAgICAgIDwvZz4KICAgIDwvZz4KPC9zdmc+;" parent="1" vertex="1">
          <mxGeometry x="29" y="370" width="792" height="281" as="geometry" />
        </mxCell>
      </root>
    </mxGraphModel>
  </diagram>
  <diagram id="-XyTQvyuQgUS3Y9y5pLb" name="Page-5">
    <mxGraphModel dx="1674" dy="843" grid="1" gridSize="10" guides="1" tooltips="1" connect="1" arrows="1" fold="1" page="1" pageScale="1" pageWidth="850" pageHeight="1100" math="0" shadow="0">
      <root>
        <mxCell id="0" />
        <mxCell id="1" parent="0" />
        <mxCell id="byzxSqJyUFe8ebePjpY3-1" style="edgeStyle=orthogonalEdgeStyle;rounded=0;orthogonalLoop=1;jettySize=auto;html=1;exitX=1;exitY=0.5;exitDx=0;exitDy=0;" parent="1" source="byzxSqJyUFe8ebePjpY3-2" edge="1">
          <mxGeometry relative="1" as="geometry">
            <mxPoint x="680" y="350" as="targetPoint" />
          </mxGeometry>
        </mxCell>
        <mxCell id="byzxSqJyUFe8ebePjpY3-2" value="Метод распознавания летательных аппаратов" style="rounded=0;whiteSpace=wrap;html=1;" parent="1" vertex="1">
          <mxGeometry x="365" y="310" width="165" height="80" as="geometry" />
        </mxCell>
        <mxCell id="byzxSqJyUFe8ebePjpY3-3" value="А0" style="text;html=1;align=center;verticalAlign=middle;resizable=0;points=[];autosize=1;strokeColor=none;fillColor=none;" parent="1" vertex="1">
          <mxGeometry x="500" y="370" width="40" height="30" as="geometry" />
        </mxCell>
        <mxCell id="byzxSqJyUFe8ebePjpY3-4" value="" style="endArrow=classic;html=1;rounded=0;entryX=0;entryY=0.5;entryDx=0;entryDy=0;" parent="1" target="byzxSqJyUFe8ebePjpY3-2" edge="1">
          <mxGeometry width="50" height="50" relative="1" as="geometry">
            <mxPoint x="230" y="350" as="sourcePoint" />
            <mxPoint x="450" y="390" as="targetPoint" />
          </mxGeometry>
        </mxCell>
        <mxCell id="byzxSqJyUFe8ebePjpY3-5" value="Изображение с &lt;br&gt;летательной техникой" style="text;html=1;align=center;verticalAlign=middle;resizable=0;points=[];autosize=1;strokeColor=none;fillColor=none;" parent="1" vertex="1">
          <mxGeometry x="215" y="310" width="150" height="40" as="geometry" />
        </mxCell>
        <mxCell id="byzxSqJyUFe8ebePjpY3-6" value="Распознанные самолеты" style="text;html=1;align=center;verticalAlign=middle;resizable=0;points=[];autosize=1;strokeColor=none;fillColor=none;" parent="1" vertex="1">
          <mxGeometry x="525" y="315" width="160" height="30" as="geometry" />
        </mxCell>
        <mxCell id="byzxSqJyUFe8ebePjpY3-7" value="" style="endArrow=classic;html=1;rounded=0;entryX=0.25;entryY=0;entryDx=0;entryDy=0;" parent="1" target="byzxSqJyUFe8ebePjpY3-2" edge="1">
          <mxGeometry width="50" height="50" relative="1" as="geometry">
            <mxPoint x="406" y="200" as="sourcePoint" />
            <mxPoint x="487.5" y="310" as="targetPoint" />
          </mxGeometry>
        </mxCell>
        <mxCell id="byzxSqJyUFe8ebePjpY3-9" value="" style="endArrow=classic;html=1;rounded=0;entryX=0.25;entryY=1;entryDx=0;entryDy=0;" parent="1" target="byzxSqJyUFe8ebePjpY3-2" edge="1">
          <mxGeometry width="50" height="50" relative="1" as="geometry">
            <mxPoint x="406" y="480" as="sourcePoint" />
            <mxPoint x="450" y="370" as="targetPoint" />
          </mxGeometry>
        </mxCell>
        <mxCell id="byzxSqJyUFe8ebePjpY3-10" value="Архитектура модели&lt;br&gt;нейронной сети&lt;br&gt;распознавания" style="text;html=1;align=center;verticalAlign=middle;resizable=0;points=[];autosize=1;strokeColor=none;fillColor=none;" parent="1" vertex="1">
          <mxGeometry x="265" y="410" width="140" height="60" as="geometry" />
        </mxCell>
        <mxCell id="byzxSqJyUFe8ebePjpY3-13" value="Модель, обученная&lt;br&gt;на распознавание" style="text;html=1;align=center;verticalAlign=middle;resizable=0;points=[];autosize=1;strokeColor=none;fillColor=none;" parent="1" vertex="1">
          <mxGeometry x="275" y="213" width="130" height="40" as="geometry" />
        </mxCell>
        <mxCell id="byzxSqJyUFe8ebePjpY3-14" value="" style="endArrow=classic;html=1;rounded=0;entryX=0.75;entryY=0;entryDx=0;entryDy=0;" parent="1" target="byzxSqJyUFe8ebePjpY3-2" edge="1">
          <mxGeometry width="50" height="50" relative="1" as="geometry">
            <mxPoint x="490" y="200" as="sourcePoint" />
            <mxPoint x="450" y="410" as="targetPoint" />
          </mxGeometry>
        </mxCell>
        <mxCell id="byzxSqJyUFe8ebePjpY3-15" value="Модель, обученная&lt;br style=&quot;border-color: var(--border-color);&quot;&gt;на классификацию" style="text;html=1;align=center;verticalAlign=middle;resizable=0;points=[];autosize=1;strokeColor=none;fillColor=none;" parent="1" vertex="1">
          <mxGeometry x="490" y="213" width="130" height="40" as="geometry" />
        </mxCell>
        <mxCell id="byzxSqJyUFe8ebePjpY3-16" value="" style="endArrow=classic;html=1;rounded=0;entryX=0.75;entryY=1;entryDx=0;entryDy=0;" parent="1" target="byzxSqJyUFe8ebePjpY3-2" edge="1">
          <mxGeometry width="50" height="50" relative="1" as="geometry">
            <mxPoint x="489" y="480" as="sourcePoint" />
            <mxPoint x="450" y="390" as="targetPoint" />
          </mxGeometry>
        </mxCell>
        <mxCell id="byzxSqJyUFe8ebePjpY3-17" value="Архитектура модели&lt;br&gt;нейронной сети&lt;br&gt;классификации" style="text;html=1;align=center;verticalAlign=middle;resizable=0;points=[];autosize=1;strokeColor=none;fillColor=none;" parent="1" vertex="1">
          <mxGeometry x="490" y="410" width="140" height="60" as="geometry" />
        </mxCell>
      </root>
    </mxGraphModel>
  </diagram>
  <diagram id="xS39trRrDayQdabwCLTn" name="Page-6">
    <mxGraphModel dx="1674" dy="843" grid="1" gridSize="10" guides="1" tooltips="1" connect="1" arrows="1" fold="1" page="1" pageScale="1" pageWidth="850" pageHeight="1100" math="0" shadow="0">
      <root>
        <mxCell id="0" />
        <mxCell id="1" parent="0" />
        <mxCell id="kBeTzJyo-yofcrCVyBJ8-1" style="edgeStyle=orthogonalEdgeStyle;rounded=0;orthogonalLoop=1;jettySize=auto;html=1;exitX=1;exitY=0.5;exitDx=0;exitDy=0;entryX=0;entryY=0.5;entryDx=0;entryDy=0;" parent="1" source="kBeTzJyo-yofcrCVyBJ8-2" target="kBeTzJyo-yofcrCVyBJ8-16" edge="1">
          <mxGeometry relative="1" as="geometry">
            <mxPoint x="465" y="340" as="targetPoint" />
            <Array as="points">
              <mxPoint x="450" y="340" />
              <mxPoint x="450" y="410" />
            </Array>
          </mxGeometry>
        </mxCell>
        <mxCell id="kBeTzJyo-yofcrCVyBJ8-2" value="Детектировать граничные области самолетов на изображении" style="rounded=0;whiteSpace=wrap;html=1;" parent="1" vertex="1">
          <mxGeometry x="150" y="300" width="165" height="80" as="geometry" />
        </mxCell>
        <mxCell id="kBeTzJyo-yofcrCVyBJ8-4" value="" style="endArrow=classic;html=1;rounded=0;entryX=0;entryY=0.5;entryDx=0;entryDy=0;" parent="1" target="kBeTzJyo-yofcrCVyBJ8-2" edge="1">
          <mxGeometry width="50" height="50" relative="1" as="geometry">
            <mxPoint x="15" y="340" as="sourcePoint" />
            <mxPoint x="235" y="380" as="targetPoint" />
          </mxGeometry>
        </mxCell>
        <mxCell id="kBeTzJyo-yofcrCVyBJ8-5" value="Изображение с &lt;br&gt;летательной техникой" style="text;html=1;align=center;verticalAlign=middle;resizable=0;points=[];autosize=1;strokeColor=none;fillColor=none;" parent="1" vertex="1">
          <mxGeometry y="300" width="150" height="40" as="geometry" />
        </mxCell>
        <mxCell id="kBeTzJyo-yofcrCVyBJ8-6" value="Координаты центров &lt;br&gt;областей с самолетом" style="text;html=1;align=center;verticalAlign=middle;resizable=0;points=[];autosize=1;strokeColor=none;fillColor=none;" parent="1" vertex="1">
          <mxGeometry x="315" y="300" width="150" height="40" as="geometry" />
        </mxCell>
        <mxCell id="kBeTzJyo-yofcrCVyBJ8-7" value="" style="endArrow=classic;html=1;rounded=0;entryX=0.5;entryY=0;entryDx=0;entryDy=0;" parent="1" target="kBeTzJyo-yofcrCVyBJ8-2" edge="1">
          <mxGeometry width="50" height="50" relative="1" as="geometry">
            <mxPoint x="233" y="180" as="sourcePoint" />
            <mxPoint x="272.5" y="300" as="targetPoint" />
          </mxGeometry>
        </mxCell>
        <mxCell id="kBeTzJyo-yofcrCVyBJ8-8" value="" style="endArrow=classic;html=1;rounded=0;entryX=0.5;entryY=1;entryDx=0;entryDy=0;" parent="1" target="kBeTzJyo-yofcrCVyBJ8-2" edge="1">
          <mxGeometry width="50" height="50" relative="1" as="geometry">
            <mxPoint x="233" y="550" as="sourcePoint" />
            <mxPoint x="235" y="360" as="targetPoint" />
          </mxGeometry>
        </mxCell>
        <mxCell id="kBeTzJyo-yofcrCVyBJ8-9" value="Архитектура модели&lt;br&gt;нейронной сети&lt;br&gt;распознавания" style="text;html=1;align=center;verticalAlign=middle;resizable=0;points=[];autosize=1;strokeColor=none;fillColor=none;" parent="1" vertex="1">
          <mxGeometry x="95" y="400" width="140" height="60" as="geometry" />
        </mxCell>
        <mxCell id="kBeTzJyo-yofcrCVyBJ8-10" value="Модель, обученная&lt;br&gt;на распознавание" style="text;html=1;align=center;verticalAlign=middle;resizable=0;points=[];autosize=1;strokeColor=none;fillColor=none;" parent="1" vertex="1">
          <mxGeometry x="100" y="210" width="130" height="40" as="geometry" />
        </mxCell>
        <mxCell id="kBeTzJyo-yofcrCVyBJ8-15" style="edgeStyle=orthogonalEdgeStyle;rounded=0;orthogonalLoop=1;jettySize=auto;html=1;exitX=1;exitY=0.5;exitDx=0;exitDy=0;" parent="1" source="kBeTzJyo-yofcrCVyBJ8-16" edge="1">
          <mxGeometry relative="1" as="geometry">
            <mxPoint x="830" y="410" as="targetPoint" />
          </mxGeometry>
        </mxCell>
        <mxCell id="kBeTzJyo-yofcrCVyBJ8-16" value="Определить модели самолетов" style="rounded=0;whiteSpace=wrap;html=1;" parent="1" vertex="1">
          <mxGeometry x="502.5" y="370" width="165" height="80" as="geometry" />
        </mxCell>
        <mxCell id="kBeTzJyo-yofcrCVyBJ8-17" value="А2" style="text;html=1;align=center;verticalAlign=middle;resizable=0;points=[];autosize=1;strokeColor=none;fillColor=none;" parent="1" vertex="1">
          <mxGeometry x="634.5" y="430" width="40" height="30" as="geometry" />
        </mxCell>
        <mxCell id="kBeTzJyo-yofcrCVyBJ8-20" value="Распознанные самолеты" style="text;html=1;align=center;verticalAlign=middle;resizable=0;points=[];autosize=1;strokeColor=none;fillColor=none;" parent="1" vertex="1">
          <mxGeometry x="667.5" y="380" width="160" height="30" as="geometry" />
        </mxCell>
        <mxCell id="kBeTzJyo-yofcrCVyBJ8-25" value="" style="endArrow=classic;html=1;rounded=0;entryX=0.5;entryY=0;entryDx=0;entryDy=0;" parent="1" target="kBeTzJyo-yofcrCVyBJ8-16" edge="1">
          <mxGeometry width="50" height="50" relative="1" as="geometry">
            <mxPoint x="585" y="180" as="sourcePoint" />
            <mxPoint x="525" y="470" as="targetPoint" />
          </mxGeometry>
        </mxCell>
        <mxCell id="kBeTzJyo-yofcrCVyBJ8-26" value="Модель, обученная&lt;br style=&quot;border-color: var(--border-color);&quot;&gt;на классификацию" style="text;html=1;align=center;verticalAlign=middle;resizable=0;points=[];autosize=1;strokeColor=none;fillColor=none;" parent="1" vertex="1">
          <mxGeometry x="590" y="290" width="130" height="40" as="geometry" />
        </mxCell>
        <mxCell id="kBeTzJyo-yofcrCVyBJ8-27" value="" style="endArrow=classic;html=1;rounded=0;entryX=0.5;entryY=1;entryDx=0;entryDy=0;" parent="1" target="kBeTzJyo-yofcrCVyBJ8-16" edge="1">
          <mxGeometry width="50" height="50" relative="1" as="geometry">
            <mxPoint x="585" y="550" as="sourcePoint" />
            <mxPoint x="564" y="450" as="targetPoint" />
          </mxGeometry>
        </mxCell>
        <mxCell id="kBeTzJyo-yofcrCVyBJ8-28" value="Архитектура модели&lt;br&gt;нейронной сети&lt;br&gt;классификации" style="text;html=1;align=center;verticalAlign=middle;resizable=0;points=[];autosize=1;strokeColor=none;fillColor=none;" parent="1" vertex="1">
          <mxGeometry x="584.5" y="470" width="140" height="60" as="geometry" />
        </mxCell>
        <mxCell id="kBeTzJyo-yofcrCVyBJ8-30" value="А1" style="text;html=1;align=center;verticalAlign=middle;resizable=0;points=[];autosize=1;strokeColor=none;fillColor=none;" parent="1" vertex="1">
          <mxGeometry x="281" y="360" width="40" height="30" as="geometry" />
        </mxCell>
      </root>
    </mxGraphModel>
  </diagram>
  <diagram id="MjgktvTqiME5oNKbgp6B" name="Page-7">
    <mxGraphModel dx="1674" dy="843" grid="1" gridSize="10" guides="1" tooltips="1" connect="1" arrows="1" fold="1" page="1" pageScale="1" pageWidth="850" pageHeight="1100" math="0" shadow="0">
      <root>
        <mxCell id="0" />
        <mxCell id="1" parent="0" />
        <mxCell id="1YO2NQXLwHqDiXJsCVlD-1" value="Модуль взаимодействия с пользователем" style="shape=module;align=center;spacingLeft=20;align=center;verticalAlign=top;whiteSpace=wrap;html=1;" parent="1" vertex="1">
          <mxGeometry x="410" y="200" width="180" height="50" as="geometry" />
        </mxCell>
        <mxCell id="1YO2NQXLwHqDiXJsCVlD-2" value="Модуль взаимодействия с обученными моделями" style="shape=module;align=center;spacingLeft=20;align=center;verticalAlign=top;whiteSpace=wrap;html=1;" parent="1" vertex="1">
          <mxGeometry x="410" y="320" width="180" height="50" as="geometry" />
        </mxCell>
        <mxCell id="1YO2NQXLwHqDiXJsCVlD-4" value="" style="endArrow=classic;startArrow=classic;html=1;rounded=0;entryX=0.5;entryY=1;entryDx=0;entryDy=0;exitX=0.5;exitY=0;exitDx=0;exitDy=0;" parent="1" source="1YO2NQXLwHqDiXJsCVlD-2" target="1YO2NQXLwHqDiXJsCVlD-1" edge="1">
          <mxGeometry width="50" height="50" relative="1" as="geometry">
            <mxPoint x="260" y="450" as="sourcePoint" />
            <mxPoint x="310" y="400" as="targetPoint" />
          </mxGeometry>
        </mxCell>
        <mxCell id="1YO2NQXLwHqDiXJsCVlD-5" value="Модуль детектирования" style="shape=module;align=center;spacingLeft=20;align=center;verticalAlign=top;whiteSpace=wrap;html=1;" parent="1" vertex="1">
          <mxGeometry x="290" y="420" width="180" height="50" as="geometry" />
        </mxCell>
        <mxCell id="1YO2NQXLwHqDiXJsCVlD-6" value="Модуль классификации" style="shape=module;align=center;spacingLeft=20;align=center;verticalAlign=top;whiteSpace=wrap;html=1;" parent="1" vertex="1">
          <mxGeometry x="540" y="420" width="180" height="50" as="geometry" />
        </mxCell>
        <mxCell id="1YO2NQXLwHqDiXJsCVlD-7" value="" style="endArrow=classic;startArrow=classic;html=1;rounded=0;entryX=0.25;entryY=1;entryDx=0;entryDy=0;exitX=0.5;exitY=0;exitDx=0;exitDy=0;edgeStyle=orthogonalEdgeStyle;" parent="1" source="1YO2NQXLwHqDiXJsCVlD-5" target="1YO2NQXLwHqDiXJsCVlD-2" edge="1">
          <mxGeometry width="50" height="50" relative="1" as="geometry">
            <mxPoint x="40" y="460" as="sourcePoint" />
            <mxPoint x="90" y="410" as="targetPoint" />
          </mxGeometry>
        </mxCell>
        <mxCell id="1YO2NQXLwHqDiXJsCVlD-8" value="" style="endArrow=classic;startArrow=classic;html=1;rounded=0;exitX=0.75;exitY=1;exitDx=0;exitDy=0;entryX=0.5;entryY=0;entryDx=0;entryDy=0;edgeStyle=orthogonalEdgeStyle;" parent="1" source="1YO2NQXLwHqDiXJsCVlD-2" target="1YO2NQXLwHqDiXJsCVlD-6" edge="1">
          <mxGeometry width="50" height="50" relative="1" as="geometry">
            <mxPoint x="690" y="370" as="sourcePoint" />
            <mxPoint x="740" y="320" as="targetPoint" />
          </mxGeometry>
        </mxCell>
      </root>
    </mxGraphModel>
  </diagram>
  <diagram id="AFf1Mt6FmEvORvr4BXBB" name="Page-8">
    <mxGraphModel dx="1674" dy="843" grid="1" gridSize="10" guides="1" tooltips="1" connect="1" arrows="1" fold="1" page="1" pageScale="1" pageWidth="850" pageHeight="1100" math="0" shadow="0">
      <root>
        <mxCell id="0" />
        <mxCell id="1" parent="0" />
        <mxCell id="LsdQmPoyr-8fLv9OLDWF-1" value="Свертка 3х3" style="rounded=0;whiteSpace=wrap;html=1;" parent="1" vertex="1">
          <mxGeometry x="120" y="150" width="120" height="60" as="geometry" />
        </mxCell>
        <mxCell id="LsdQmPoyr-8fLv9OLDWF-2" value="" style="endArrow=classic;html=1;rounded=0;entryX=0.5;entryY=0;entryDx=0;entryDy=0;" parent="1" target="LsdQmPoyr-8fLv9OLDWF-1" edge="1">
          <mxGeometry width="50" height="50" relative="1" as="geometry">
            <mxPoint x="180" y="80" as="sourcePoint" />
            <mxPoint x="110" y="60" as="targetPoint" />
          </mxGeometry>
        </mxCell>
        <mxCell id="LsdQmPoyr-8fLv9OLDWF-3" value="(256х24х24)" style="text;html=1;align=center;verticalAlign=middle;resizable=0;points=[];autosize=1;strokeColor=none;fillColor=none;" parent="1" vertex="1">
          <mxGeometry x="170" y="90" width="90" height="30" as="geometry" />
        </mxCell>
        <mxCell id="LsdQmPoyr-8fLv9OLDWF-4" value="" style="endArrow=classic;html=1;rounded=0;exitX=0.5;exitY=1;exitDx=0;exitDy=0;entryX=0.5;entryY=0;entryDx=0;entryDy=0;" parent="1" source="LsdQmPoyr-8fLv9OLDWF-1" target="LsdQmPoyr-8fLv9OLDWF-6" edge="1">
          <mxGeometry width="50" height="50" relative="1" as="geometry">
            <mxPoint x="180" y="220" as="sourcePoint" />
            <mxPoint x="180" y="270" as="targetPoint" />
          </mxGeometry>
        </mxCell>
        <mxCell id="LsdQmPoyr-8fLv9OLDWF-5" value="(256х24х24)" style="text;html=1;align=center;verticalAlign=middle;resizable=0;points=[];autosize=1;strokeColor=none;fillColor=none;" parent="1" vertex="1">
          <mxGeometry x="170" y="220" width="90" height="30" as="geometry" />
        </mxCell>
        <mxCell id="LsdQmPoyr-8fLv9OLDWF-6" value="Свертка 3х3" style="rounded=0;whiteSpace=wrap;html=1;" parent="1" vertex="1">
          <mxGeometry x="120" y="270" width="120" height="60" as="geometry" />
        </mxCell>
        <mxCell id="LsdQmPoyr-8fLv9OLDWF-7" value="" style="endArrow=classic;html=1;rounded=0;exitX=0.5;exitY=1;exitDx=0;exitDy=0;entryX=0.5;entryY=0;entryDx=0;entryDy=0;" parent="1" source="LsdQmPoyr-8fLv9OLDWF-6" target="LsdQmPoyr-8fLv9OLDWF-10" edge="1">
          <mxGeometry width="50" height="50" relative="1" as="geometry">
            <mxPoint x="180" y="340" as="sourcePoint" />
            <mxPoint x="180" y="390" as="targetPoint" />
          </mxGeometry>
        </mxCell>
        <mxCell id="LsdQmPoyr-8fLv9OLDWF-8" value="(256х24х24)" style="text;html=1;align=center;verticalAlign=middle;resizable=0;points=[];autosize=1;strokeColor=none;fillColor=none;" parent="1" vertex="1">
          <mxGeometry x="170" y="340" width="90" height="30" as="geometry" />
        </mxCell>
        <mxCell id="LsdQmPoyr-8fLv9OLDWF-10" value="MaxPool 2x2 с шагом 2" style="rounded=0;whiteSpace=wrap;html=1;" parent="1" vertex="1">
          <mxGeometry x="120" y="390" width="120" height="60" as="geometry" />
        </mxCell>
        <mxCell id="LsdQmPoyr-8fLv9OLDWF-11" value="" style="endArrow=classic;html=1;rounded=0;" parent="1" source="LsdQmPoyr-8fLv9OLDWF-10" edge="1">
          <mxGeometry width="50" height="50" relative="1" as="geometry">
            <mxPoint x="180" y="460" as="sourcePoint" />
            <mxPoint x="180" y="500" as="targetPoint" />
          </mxGeometry>
        </mxCell>
        <mxCell id="LsdQmPoyr-8fLv9OLDWF-12" value="(256х12х12)" style="text;html=1;align=center;verticalAlign=middle;resizable=0;points=[];autosize=1;strokeColor=none;fillColor=none;" parent="1" vertex="1">
          <mxGeometry x="170" y="460" width="90" height="30" as="geometry" />
        </mxCell>
        <mxCell id="LsdQmPoyr-8fLv9OLDWF-13" value="Свертка 3х3" style="rounded=0;whiteSpace=wrap;html=1;" parent="1" vertex="1">
          <mxGeometry x="380" y="150" width="120" height="60" as="geometry" />
        </mxCell>
        <mxCell id="LsdQmPoyr-8fLv9OLDWF-14" value="" style="endArrow=classic;html=1;rounded=0;entryX=0.5;entryY=0;entryDx=0;entryDy=0;" parent="1" target="LsdQmPoyr-8fLv9OLDWF-13" edge="1">
          <mxGeometry width="50" height="50" relative="1" as="geometry">
            <mxPoint x="440" y="80" as="sourcePoint" />
            <mxPoint x="370" y="50" as="targetPoint" />
          </mxGeometry>
        </mxCell>
        <mxCell id="LsdQmPoyr-8fLv9OLDWF-15" value="(256х24х24)" style="text;html=1;align=center;verticalAlign=middle;resizable=0;points=[];autosize=1;strokeColor=none;fillColor=none;" parent="1" vertex="1">
          <mxGeometry x="430" y="90" width="90" height="30" as="geometry" />
        </mxCell>
        <mxCell id="LsdQmPoyr-8fLv9OLDWF-16" value="" style="endArrow=classic;html=1;rounded=0;exitX=0.5;exitY=1;exitDx=0;exitDy=0;entryX=0.5;entryY=0;entryDx=0;entryDy=0;" parent="1" source="LsdQmPoyr-8fLv9OLDWF-13" target="LsdQmPoyr-8fLv9OLDWF-21" edge="1">
          <mxGeometry width="50" height="50" relative="1" as="geometry">
            <mxPoint x="440" y="210" as="sourcePoint" />
            <mxPoint x="440" y="260" as="targetPoint" />
          </mxGeometry>
        </mxCell>
        <mxCell id="LsdQmPoyr-8fLv9OLDWF-17" value="(256х24х24)" style="text;html=1;align=center;verticalAlign=middle;resizable=0;points=[];autosize=1;strokeColor=none;fillColor=none;" parent="1" vertex="1">
          <mxGeometry x="430" y="220" width="90" height="30" as="geometry" />
        </mxCell>
        <mxCell id="LsdQmPoyr-8fLv9OLDWF-21" value="MaxPool 2x2 с шагом 2" style="rounded=0;whiteSpace=wrap;html=1;" parent="1" vertex="1">
          <mxGeometry x="380" y="270" width="120" height="60" as="geometry" />
        </mxCell>
        <mxCell id="LsdQmPoyr-8fLv9OLDWF-22" value="" style="endArrow=classic;html=1;rounded=0;entryX=0.5;entryY=0;entryDx=0;entryDy=0;" parent="1" source="LsdQmPoyr-8fLv9OLDWF-21" target="LsdQmPoyr-8fLv9OLDWF-24" edge="1">
          <mxGeometry width="50" height="50" relative="1" as="geometry">
            <mxPoint x="440" y="340" as="sourcePoint" />
            <mxPoint x="440" y="390" as="targetPoint" />
          </mxGeometry>
        </mxCell>
        <mxCell id="LsdQmPoyr-8fLv9OLDWF-23" value="(256х12х12)" style="text;html=1;align=center;verticalAlign=middle;resizable=0;points=[];autosize=1;strokeColor=none;fillColor=none;" parent="1" vertex="1">
          <mxGeometry x="430" y="340" width="90" height="30" as="geometry" />
        </mxCell>
        <mxCell id="LsdQmPoyr-8fLv9OLDWF-24" value="Dropout p=0.1" style="rounded=0;whiteSpace=wrap;html=1;" parent="1" vertex="1">
          <mxGeometry x="380" y="390" width="120" height="60" as="geometry" />
        </mxCell>
        <mxCell id="LsdQmPoyr-8fLv9OLDWF-25" value="" style="endArrow=classic;html=1;rounded=0;" parent="1" edge="1">
          <mxGeometry width="50" height="50" relative="1" as="geometry">
            <mxPoint x="440" y="450" as="sourcePoint" />
            <mxPoint x="440" y="500" as="targetPoint" />
          </mxGeometry>
        </mxCell>
        <mxCell id="LsdQmPoyr-8fLv9OLDWF-26" value="(256х12х12)" style="text;html=1;align=center;verticalAlign=middle;resizable=0;points=[];autosize=1;strokeColor=none;fillColor=none;" parent="1" vertex="1">
          <mxGeometry x="430" y="460" width="90" height="30" as="geometry" />
        </mxCell>
      </root>
    </mxGraphModel>
  </diagram>
  <diagram id="UUgvrPMIYBpj1_ISw9Az" name="Page-9">
    <mxGraphModel dx="1674" dy="843" grid="1" gridSize="10" guides="1" tooltips="1" connect="1" arrows="1" fold="1" page="1" pageScale="1" pageWidth="850" pageHeight="1100" math="0" shadow="0">
      <root>
        <mxCell id="0" />
        <mxCell id="1" parent="0" />
        <mxCell id="wR4ImeztSafn4Ki9UbeZ-1" style="edgeStyle=orthogonalEdgeStyle;rounded=0;orthogonalLoop=1;jettySize=auto;html=1;exitX=1;exitY=0.5;exitDx=0;exitDy=0;" parent="1" source="wR4ImeztSafn4Ki9UbeZ-2" edge="1">
          <mxGeometry relative="1" as="geometry">
            <mxPoint x="680" y="350" as="targetPoint" />
          </mxGeometry>
        </mxCell>
        <mxCell id="wR4ImeztSafn4Ki9UbeZ-2" value="Метод распознавания летательных аппаратов" style="rounded=0;whiteSpace=wrap;html=1;" parent="1" vertex="1">
          <mxGeometry x="365" y="310" width="165" height="80" as="geometry" />
        </mxCell>
        <mxCell id="wR4ImeztSafn4Ki9UbeZ-3" value="А0" style="text;html=1;align=center;verticalAlign=middle;resizable=0;points=[];autosize=1;strokeColor=none;fillColor=none;" parent="1" vertex="1">
          <mxGeometry x="500" y="370" width="40" height="30" as="geometry" />
        </mxCell>
        <mxCell id="wR4ImeztSafn4Ki9UbeZ-4" value="" style="endArrow=classic;html=1;rounded=0;entryX=0;entryY=0.5;entryDx=0;entryDy=0;" parent="1" target="wR4ImeztSafn4Ki9UbeZ-2" edge="1">
          <mxGeometry width="50" height="50" relative="1" as="geometry">
            <mxPoint x="230" y="350" as="sourcePoint" />
            <mxPoint x="450" y="390" as="targetPoint" />
          </mxGeometry>
        </mxCell>
        <mxCell id="wR4ImeztSafn4Ki9UbeZ-5" value="Изображение с &lt;br&gt;летательной техникой" style="text;html=1;align=center;verticalAlign=middle;resizable=0;points=[];autosize=1;strokeColor=none;fillColor=none;" parent="1" vertex="1">
          <mxGeometry x="215" y="310" width="150" height="40" as="geometry" />
        </mxCell>
        <mxCell id="wR4ImeztSafn4Ki9UbeZ-6" value="Распознанные самолеты" style="text;html=1;align=center;verticalAlign=middle;resizable=0;points=[];autosize=1;strokeColor=none;fillColor=none;" parent="1" vertex="1">
          <mxGeometry x="525" y="315" width="160" height="30" as="geometry" />
        </mxCell>
        <mxCell id="wR4ImeztSafn4Ki9UbeZ-8" value="" style="endArrow=classic;html=1;rounded=0;entryX=0.25;entryY=1;entryDx=0;entryDy=0;" parent="1" target="wR4ImeztSafn4Ki9UbeZ-2" edge="1">
          <mxGeometry width="50" height="50" relative="1" as="geometry">
            <mxPoint x="406" y="480" as="sourcePoint" />
            <mxPoint x="450" y="370" as="targetPoint" />
          </mxGeometry>
        </mxCell>
        <mxCell id="wR4ImeztSafn4Ki9UbeZ-9" value="Модель, обученная&lt;br style=&quot;border-color: var(--border-color);&quot;&gt;на распознавание" style="text;html=1;align=center;verticalAlign=middle;resizable=0;points=[];autosize=1;strokeColor=none;fillColor=none;" parent="1" vertex="1">
          <mxGeometry x="270" y="420" width="130" height="40" as="geometry" />
        </mxCell>
        <mxCell id="wR4ImeztSafn4Ki9UbeZ-13" value="" style="endArrow=classic;html=1;rounded=0;entryX=0.75;entryY=1;entryDx=0;entryDy=0;" parent="1" target="wR4ImeztSafn4Ki9UbeZ-2" edge="1">
          <mxGeometry width="50" height="50" relative="1" as="geometry">
            <mxPoint x="489" y="480" as="sourcePoint" />
            <mxPoint x="450" y="390" as="targetPoint" />
          </mxGeometry>
        </mxCell>
        <mxCell id="wR4ImeztSafn4Ki9UbeZ-14" value="Модель, обученная&lt;br style=&quot;border-color: var(--border-color);&quot;&gt;на классификацию" style="text;html=1;align=center;verticalAlign=middle;resizable=0;points=[];autosize=1;strokeColor=none;fillColor=none;" parent="1" vertex="1">
          <mxGeometry x="495" y="420" width="130" height="40" as="geometry" />
        </mxCell>
      </root>
    </mxGraphModel>
  </diagram>
  <diagram id="vYoV9F435uYS5U4Jo2xF" name="Page-10">
    <mxGraphModel dx="1674" dy="843" grid="1" gridSize="10" guides="1" tooltips="1" connect="1" arrows="1" fold="1" page="1" pageScale="1" pageWidth="850" pageHeight="1100" math="0" shadow="0">
      <root>
        <mxCell id="0" />
        <mxCell id="1" parent="0" />
        <mxCell id="kOs7AAsn2h0Pe1SZ2p33-1" style="edgeStyle=orthogonalEdgeStyle;rounded=0;orthogonalLoop=1;jettySize=auto;html=1;exitX=1;exitY=0.5;exitDx=0;exitDy=0;entryX=0;entryY=0.25;entryDx=0;entryDy=0;" parent="1" source="kOs7AAsn2h0Pe1SZ2p33-2" target="kOs7AAsn2h0Pe1SZ2p33-10" edge="1">
          <mxGeometry relative="1" as="geometry">
            <mxPoint x="465" y="340" as="targetPoint" />
            <Array as="points">
              <mxPoint x="450" y="340" />
              <mxPoint x="450" y="390" />
            </Array>
          </mxGeometry>
        </mxCell>
        <mxCell id="kOs7AAsn2h0Pe1SZ2p33-2" value="Детектировать граничные области самолетов на изображении" style="rounded=0;whiteSpace=wrap;html=1;" parent="1" vertex="1">
          <mxGeometry x="150" y="300" width="165" height="80" as="geometry" />
        </mxCell>
        <mxCell id="kOs7AAsn2h0Pe1SZ2p33-3" value="" style="endArrow=classic;html=1;rounded=0;entryX=0;entryY=0.5;entryDx=0;entryDy=0;" parent="1" target="kOs7AAsn2h0Pe1SZ2p33-2" edge="1">
          <mxGeometry width="50" height="50" relative="1" as="geometry">
            <mxPoint x="15" y="340" as="sourcePoint" />
            <mxPoint x="235" y="380" as="targetPoint" />
          </mxGeometry>
        </mxCell>
        <mxCell id="kOs7AAsn2h0Pe1SZ2p33-4" value="Координаты центров &lt;br&gt;областей с самолетом" style="text;html=1;align=center;verticalAlign=middle;resizable=0;points=[];autosize=1;strokeColor=none;fillColor=none;" parent="1" vertex="1">
          <mxGeometry x="315" y="300" width="150" height="40" as="geometry" />
        </mxCell>
        <mxCell id="kOs7AAsn2h0Pe1SZ2p33-6" value="" style="endArrow=classic;html=1;rounded=0;entryX=0.5;entryY=1;entryDx=0;entryDy=0;" parent="1" target="kOs7AAsn2h0Pe1SZ2p33-2" edge="1">
          <mxGeometry width="50" height="50" relative="1" as="geometry">
            <mxPoint x="233" y="550" as="sourcePoint" />
            <mxPoint x="235" y="360" as="targetPoint" />
          </mxGeometry>
        </mxCell>
        <mxCell id="kOs7AAsn2h0Pe1SZ2p33-7" value="Модель, обученная&lt;br style=&quot;border-color: var(--border-color);&quot;&gt;на распознавание" style="text;html=1;align=center;verticalAlign=middle;resizable=0;points=[];autosize=1;strokeColor=none;fillColor=none;" parent="1" vertex="1">
          <mxGeometry x="100" y="480" width="130" height="40" as="geometry" />
        </mxCell>
        <mxCell id="kOs7AAsn2h0Pe1SZ2p33-9" style="edgeStyle=orthogonalEdgeStyle;rounded=0;orthogonalLoop=1;jettySize=auto;html=1;exitX=1;exitY=0.5;exitDx=0;exitDy=0;" parent="1" source="kOs7AAsn2h0Pe1SZ2p33-10" edge="1">
          <mxGeometry relative="1" as="geometry">
            <mxPoint x="830" y="410" as="targetPoint" />
          </mxGeometry>
        </mxCell>
        <mxCell id="kOs7AAsn2h0Pe1SZ2p33-10" value="Определить модели самолетов" style="rounded=0;whiteSpace=wrap;html=1;" parent="1" vertex="1">
          <mxGeometry x="502.5" y="370" width="165" height="80" as="geometry" />
        </mxCell>
        <mxCell id="kOs7AAsn2h0Pe1SZ2p33-11" value="А2" style="text;html=1;align=center;verticalAlign=middle;resizable=0;points=[];autosize=1;strokeColor=none;fillColor=none;" parent="1" vertex="1">
          <mxGeometry x="634.5" y="430" width="40" height="30" as="geometry" />
        </mxCell>
        <mxCell id="kOs7AAsn2h0Pe1SZ2p33-12" value="Распознанные самолеты" style="text;html=1;align=center;verticalAlign=middle;resizable=0;points=[];autosize=1;strokeColor=none;fillColor=none;" parent="1" vertex="1">
          <mxGeometry x="667.5" y="380" width="160" height="30" as="geometry" />
        </mxCell>
        <mxCell id="kOs7AAsn2h0Pe1SZ2p33-15" value="" style="endArrow=classic;html=1;rounded=0;entryX=0.5;entryY=1;entryDx=0;entryDy=0;" parent="1" target="kOs7AAsn2h0Pe1SZ2p33-10" edge="1">
          <mxGeometry width="50" height="50" relative="1" as="geometry">
            <mxPoint x="585" y="550" as="sourcePoint" />
            <mxPoint x="564" y="450" as="targetPoint" />
          </mxGeometry>
        </mxCell>
        <mxCell id="kOs7AAsn2h0Pe1SZ2p33-16" value="Модель, обученная&lt;br style=&quot;border-color: var(--border-color);&quot;&gt;на классификацию" style="text;html=1;align=center;verticalAlign=middle;resizable=0;points=[];autosize=1;strokeColor=none;fillColor=none;" parent="1" vertex="1">
          <mxGeometry x="589.5" y="480" width="130" height="40" as="geometry" />
        </mxCell>
        <mxCell id="kOs7AAsn2h0Pe1SZ2p33-17" value="А1" style="text;html=1;align=center;verticalAlign=middle;resizable=0;points=[];autosize=1;strokeColor=none;fillColor=none;" parent="1" vertex="1">
          <mxGeometry x="281" y="360" width="40" height="30" as="geometry" />
        </mxCell>
        <mxCell id="oM57LtxY5rTjhU53zLuT-1" value="Изображение с &lt;br&gt;летательной техникой" style="text;html=1;align=center;verticalAlign=middle;resizable=0;points=[];autosize=1;strokeColor=none;fillColor=none;" vertex="1" parent="1">
          <mxGeometry y="300" width="150" height="40" as="geometry" />
        </mxCell>
        <mxCell id="oM57LtxY5rTjhU53zLuT-2" value="" style="endArrow=classic;html=1;rounded=0;entryX=0;entryY=0.75;entryDx=0;entryDy=0;edgeStyle=orthogonalEdgeStyle;" edge="1" parent="1" target="kOs7AAsn2h0Pe1SZ2p33-10">
          <mxGeometry width="50" height="50" relative="1" as="geometry">
            <mxPoint x="90" y="340" as="sourcePoint" />
            <mxPoint x="390" y="450" as="targetPoint" />
            <Array as="points">
              <mxPoint x="95" y="430" />
            </Array>
          </mxGeometry>
        </mxCell>
      </root>
    </mxGraphModel>
  </diagram>
</mxfile>
